<svg id="Calque_1" data-name="Calque 1" xmlns="http://www.w3.org/2000/svg" viewBox="0 0 167.97 299.83"><defs><style>.cls-1{fill:#161616;}</style></defs><path class="cls-1" d="M121.62,101.89,118,100.18a6.15,6.15,0,0,1-2.39,2.71,7.27,7.27,0,0,1-3.77,1H106c-7.91,0-9.79,3.3-12.68,8.38-.15.28-.31.56-.59,1l-1.74,3H105a12.36,12.36,0,0,0,8.34-2.85,13.66,13.66,0,0,0,4.16-7l.17-.1A10.16,10.16,0,0,0,121.62,101.89Zm-10.86,8.52a8.51,8.51,0,0,1-5.74,1.87H97.9c1.7-2.72,3.48-4.39,8.06-4.39h5.88a8.83,8.83,0,0,0,.89,0A8.33,8.33,0,0,1,110.76,110.41Z"/><path class="cls-1" d="M74.85,127.06,71,126c-1,3.83-.56,6.09.84,7.5s3.35,1.64,5.52,1.69c.31,0,.86.49,1.45,1,1.3,1.15,2.72,2.4,5.19,2.4s3.88-1.25,5.18-2.4c.59-.51,1.14-1,1.45-1,2.17,0,4.14-.28,5.53-1.69S98,129.84,97,126l-3.86,1c.6,2.2.57,3.24.18,3.63s-1.49.48-2.77.51c-1.79,0-2.86,1-4,2A4.16,4.16,0,0,1,84,134.58a4.21,4.21,0,0,1-2.54-1.39c-1.15-1-2.22-2-4-2-1.27,0-2.37-.11-2.77-.51S74.24,129.26,74.85,127.06Z"/><path class="cls-1" d="M75.28,113.29l-.59-1c-2.89-5.08-4.77-8.38-12.67-8.38H56.13a7.24,7.24,0,0,1-3.76-1,6.23,6.23,0,0,1-2.4-2.71l-3.62,1.71a10.22,10.22,0,0,0,3.93,4.42l.17.1a13.73,13.73,0,0,0,4.16,7A12.37,12.37,0,0,0,63,116.3H77Zm-12.32-1a7.91,7.91,0,0,1-7.72-4.43c.3,0,.6,0,.89,0H62c4.57,0,6.35,1.67,8,4.39Z"/><path class="cls-1" d="M151.94,94.81a63.49,63.49,0,0,0-.5-6.51h0c-.17-1.35-.39-2.69-.65-4h0a62.46,62.46,0,0,0-8.34-21.09l0-.05c-.82-1.3-1.67-2.59-2.59-3.83l0,0c-.83-1.14-1.69-2.26-2.59-3.34a25.18,25.18,0,0,0-2.83-2.33A24.68,24.68,0,0,0,131.67,52a89.47,89.47,0,0,0-14.79-6.6,95.49,95.49,0,0,0-15-3.79,13.84,13.84,0,0,0-1.76-5.73,12.79,12.79,0,0,0-2-2.57,13.82,13.82,0,0,0-3.4-2.49A22.88,22.88,0,0,0,84,28.56a22.92,22.92,0,0,0-10.67,2.27,14,14,0,0,0-3.39,2.49,12.44,12.44,0,0,0-2,2.57,13.55,13.55,0,0,0-1.76,5.73A94.94,94.94,0,0,0,51.1,45.41,89.21,89.21,0,0,0,36.3,52a31.28,31.28,0,0,0-2.74,1.74A30.74,30.74,0,0,0,30.7,56c-.91,1.08-1.77,2.19-2.6,3.33l0,0c-.91,1.24-1.77,2.53-2.59,3.83l0,0a62.14,62.14,0,0,0-8.34,21.1h0c-.25,1.32-.48,2.66-.65,4h0A60.79,60.79,0,0,0,16,94.81h0v116h.06c1.3,33.59,31.21,60.47,67.93,60.47s66.62-26.88,67.92-60.47H152v-116ZM140.42,67.39l.11-.22a58.74,58.74,0,0,1,4.24,9.17,57.6,57.6,0,0,1,2.25,8H132.2l6.27-12.88ZM132.51,56h0c.52.57,1,1.12,1.52,1.77s1,1.29,1.47,1.91c.78,1,1.63,2.14,2.51,3.43L125.55,88.8c-1.77-.68-3.59-1.31-5.47-1.87,1.88-4.67,3.85-9.56,5.81-14.45C128.14,66.89,130.38,61.3,132.51,56Zm-5.67,62,.34-5.33a9.38,9.38,0,0,1,6.43-1.84,6.25,6.25,0,0,1,3.28,1.44,6.61,6.61,0,0,1,2,3,8,8,0,0,1,.37,2.8h-.05v.57a11.16,11.16,0,0,1-1.24,4l-7.86,15.13a6.31,6.31,0,0,1-2.73,3,1.78,1.78,0,0,1-.73.17,1.28,1.28,0,0,1-.52-.15,2.21,2.21,0,0,1-.92-1.05c.36-2.53.55-5.08.71-7.7l.39-6.1a9.43,9.43,0,0,1,2.79-4.66,7.68,7.68,0,0,1,5-2v-4A11.64,11.64,0,0,0,126.84,118Zm1.8-63.08L122.17,71c-2,5-4,10.07-6,14.87q-2.82-.7-5.76-1.26h0l11-33.14C123.93,52.5,126.33,53.66,128.64,54.91Zm-13-5.7c.72.24,1.43.5,2.14.76l-11.32,34c-1.94-.3-3.92-.55-5.92-.75l9.78-35.6C112.08,48.07,113.85,48.61,115.59,49.21ZM98.52,55a28.74,28.74,0,0,0,3.18-9.34c1.59.27,3.15.59,4.69.93l-10,36.2c-1.48-.11-3-.2-4.48-.27C92,74.45,92.72,66.08,98.52,55ZM87,74.63c-.88,0-1.9,0-3.05,0s-2.18,0-3.06,0l-1.3-.06a54.13,54.13,0,0,0-1.14-7l1.31.07c1.47.07,2.87.1,4.19.1s2.71,0,4.19-.1l1.3-.07a56.23,56.23,0,0,0-1.14,7Zm1,4C88,80.78,88,82.92,88,85.06l-4,2.43-4-2.43c0-2.14,0-4.28-.1-6.47l.89,0q1.78.06,3.18.06c.92,0,2,0,3.18-.06Zm0-14.91q-1.87.09-4,.09t-4-.09c-.88,0-1.75-.09-2.59-.15a60.6,60.6,0,0,0-2.79-7.13c.93.09,1.87.17,2.81.24,2.19.16,4.4.24,6.59.24s4.39-.08,6.58-.24c1-.07,1.89-.15,2.81-.24a62.25,62.25,0,0,0-2.78,7.13C89.75,63.59,88.89,63.64,88,63.68ZM84,32.57a19.39,19.39,0,0,1,8.66,1.72c-1.9.8-3.12,2.38-4.35,4s-2.28,3-4.31,3-3.18-1.48-4.32-3-2.45-3.17-4.34-4A19.33,19.33,0,0,1,84,32.57ZM71.37,37.9v0c2.67-.35,3.89,1.23,5.13,2.82C78.25,43,80,45.22,84,45.22S89.72,43,91.47,40.7c1.23-1.59,2.46-3.17,5.12-2.82v0a10.1,10.1,0,0,1,1.27,5.16,21.33,21.33,0,0,1-2.36,9q-2.55.36-5.22.54c-2,.15-4.15.22-6.3.22s-4.26-.07-6.3-.22c-1.78-.12-3.53-.3-5.22-.54a21.21,21.21,0,0,1-2.37-9A10.2,10.2,0,0,1,71.37,37.9Zm-5.1,7.77A29,29,0,0,0,69.45,55c5.8,11.07,6.48,19.44,6.56,27.52-1.5.07-3,.16-4.48.27L61.59,46.6C63.12,46.26,64.69,45.94,66.27,45.67ZM52.38,49.21c1.74-.6,3.52-1.14,5.33-1.64l9.77,35.6q-3,.3-5.92.75L50.24,50C51,49.71,51.66,49.45,52.38,49.21Zm-5.86,2.24L57.58,84.59h0q-2.94.56-5.76,1.26c-1.93-4.8-4-9.83-6-14.87-2.19-5.46-4.39-10.92-6.47-16.08C41.65,53.66,44.05,52.5,46.52,51.45ZM32.45,59.71c.54-.7,1.11-1.42,1.71-2.14.44-.53.88-1,1.31-1.53,2.12,5.27,4.37,10.85,6.61,16.44L47.9,86.93c-1.88.56-3.71,1.19-5.48,1.87L29.94,63.13C30.73,62,31.56,60.83,32.45,59.71Zm6.34,61.59a9.43,9.43,0,0,1,2.88,5l.37,5.73c.17,2.58.35,5.09.69,7.58a2.25,2.25,0,0,1-1,1.17,1.24,1.24,0,0,1-.52.15,1.78,1.78,0,0,1-.73-.17,6.31,6.31,0,0,1-2.73-3l-7.86-15.13a9.47,9.47,0,0,1-.92-7.33,6.61,6.61,0,0,1,2-3,6.24,6.24,0,0,1,3.29-1.44,9.44,9.44,0,0,1,6.5,1.89l.34,5.34a11.68,11.68,0,0,0-7.36-2.72v4A7.68,7.68,0,0,1,38.79,121.3ZM27.42,67.13l.13.26,2,4,6.27,12.88H20.92A57.69,57.69,0,0,1,27.42,67.13ZM19.68,96.56l0-1.67a59.94,59.94,0,0,1,.52-6.59H37.73l1.74,3.57.59,9.32H19.68Zm0,8.64H40.32L40.5,108a12.43,12.43,0,0,0-6.71-1.1,10.38,10.38,0,0,0-5.37,2.35,10.59,10.59,0,0,0-3.23,4.85,11.78,11.78,0,0,0-.57,4H19.68Zm0,16.9h5.67a17.62,17.62,0,0,0,1,2.36L31.83,135H19.68Zm0,16.89H33.91l.31.6A10.19,10.19,0,0,0,39,144.48a5.53,5.53,0,0,0,2.36.47,5,5,0,0,0,2.3-.58h0c.24,1,.52,1.95.84,2.92a34.44,34.44,0,0,0,1.92,4.59H19.68Zm0,16.9H48.76A45.55,45.55,0,0,0,54,162.18l0,6.59H19.68Zm0,16.9H54l0,12.88H19.68Zm0,16.9H54.07l0,12.88H19.68Zm.06,21-.06-1.56v-2.51H54.1l0,12.89H20.81A55.06,55.06,0,0,1,19.74,210.65Zm2.06,12.83H54.14l0,12.88H27.29A55.33,55.33,0,0,1,21.8,223.48Zm17.4,27.4a61.15,61.15,0,0,1-9.35-10.5H54.17l0,12.88H42C41.07,252.49,40.12,251.71,39.2,250.88Zm8.51,6.39H54.2v3.62A66.47,66.47,0,0,1,47.71,257.27ZM58,166.1l12.31,12-1,21.11-11.23-12.3Zm0,26.79,10.94,12-.56,11.37L58.1,203.87Zm51.69,69.74a69.58,69.58,0,0,1-51.55,0l-.1-52.5,10,12-1,20.5h33.69l-1-20.54,10.05-12ZM93.37,172.79,94,185.67H74l.63-12.88Zm-18.57-4,.06-1.05.08-1.71,9-2.93L93,166l.14,2.76Zm19.4,20.92.64,12.88H73.13l.64-12.88ZM95,206.58l.64,12.89H72.3l.63-12.89Zm.84,16.9.75,15.15H71.35l.75-15.15Zm14-19.64L99.52,216.21,99,204.83l10.94-12Zm0-16.94L98.68,199.2l-1-21.08,12.31-12ZM97.38,172.78l-.48-9.73-12.3-4H83.38l-12.3,4-.48,9.73L57.42,159.92A34.39,34.39,0,0,1,48.27,146c-1.53-4.56-1.91-9.24-2.23-14.21L43.53,92.66a81.93,81.93,0,0,1,14.75-4.12,128.67,128.67,0,0,1,17.73-2v.76l8,4.89,8-4.89v-.76a128.64,128.64,0,0,1,17.74,2,81.59,81.59,0,0,1,14.74,4.12l-2.09,32.69-.06.26h0l-.39,6.19c-.32,5-.7,9.65-2.23,14.21a34.39,34.39,0,0,1-9.15,13.9Zm16.38,88.11v-3.62h6.49A66.47,66.47,0,0,1,113.76,260.89Zm15-10c-.93.83-1.88,1.61-2.85,2.38H113.78l0-12.88h24.31A61.08,61.08,0,0,1,128.78,250.88Zm11.9-14.52H113.81l0-12.88h32.34A55.79,55.79,0,0,1,140.68,236.36Zm7.61-27.27-.06,1.56a55.06,55.06,0,0,1-1.07,8.82H113.85l0-12.89h34.42Zm0-6.52H113.88l0-12.88h34.39Zm0-16.9H113.91l0-12.88h34.35Zm0-16.9H114v-6.59a44.17,44.17,0,0,0,5.25-6.29h29.08Zm0-16.89h-26.7a34.36,34.36,0,0,0,1.91-4.59c.33-1,.6-1.93.84-2.89a5.09,5.09,0,0,0,2.26.55,5.59,5.59,0,0,0,2.36-.47,10.22,10.22,0,0,0,4.72-4.89l.31-.6h14.3Zm0-16.9H136.08l5.46-10.52a16.41,16.41,0,0,0,1-2.36h5.74Zm0-16.9h-5a11.78,11.78,0,0,0-.57-4,10.59,10.59,0,0,0-3.23-4.85,10.38,10.38,0,0,0-5.37-2.35,12.39,12.39,0,0,0-6.63,1.07l.18-2.72h20.63Zm0-16.89H127.91l.6-9.32,1.74-3.57h17.47a55.75,55.75,0,0,1,.53,6.59l0,1.14Z"/><path class="cls-1" d="M94,145.45a28.6,28.6,0,0,0-3-1,11.77,11.77,0,0,0-7.05.84,11.81,11.81,0,0,0-7.06-.84,29.38,29.38,0,0,0-3,1,17.44,17.44,0,0,1-8.37,1.34l-.39,4c1.94,1,7.32,3.62,9.84,4.08a56,56,0,0,0,18,0c2.52-.46,7.8-3,9.74-4.08l-.39-4A17.47,17.47,0,0,1,94,145.45Zm-1.69,5.48a53.38,53.38,0,0,1-16.61,0,25.16,25.16,0,0,1-3.24-.8c1-.29,1.91-.62,2.79-.93a21.24,21.24,0,0,1,2.57-.82,8.06,8.06,0,0,1,5.17.89l1,.53,1-.53a8.08,8.08,0,0,1,5.17-.89,20.69,20.69,0,0,1,2.57.82c.9.32,1.83.65,2.85.94A26.26,26.26,0,0,1,92.34,150.93Z"/></svg>