<svg xmlns="http://www.w3.org/2000/svg" viewBox="0 0 559.57 106.33"><defs><style>.cls-1{fill:#161616;}</style></defs><g id="Calque_2" data-name="Calque 2"><g id="Calque_1-2" data-name="Calque 1"><g id="Calque_1-2-2" data-name="Calque 1-2"><path class="cls-1" d="M46.28,32.13l-1.59-.72a2.79,2.79,0,0,1-1.07,1.16A3.18,3.18,0,0,1,42,33H39.41c-3.49,0-4.29,1.45-5.55,3.67l-.26.46-.76,1.32H39a5.42,5.42,0,0,0,3.65-1.23,6,6,0,0,0,1.83-3.08l.07,0A4.58,4.58,0,0,0,46.28,32.13Zm-4.77,3.73a3.69,3.69,0,0,1-2.51.82H35.88a3.6,3.6,0,0,1,3.53-1.92h3A3.72,3.72,0,0,1,41.51,35.86Z"/><path class="cls-1" d="M25.78,43.16l-1.69-.46c-.46,1.68-.25,2.67.36,3.28a3.33,3.33,0,0,0,2.43.74c.13,0,.37.22.63.44a3,3,0,0,0,4.22.33,2.57,2.57,0,0,0,.33-.33c.26-.22.5-.44.63-.44A3.25,3.25,0,0,0,35.12,46c.61-.61.82-1.6.36-3.28l-1.69.46c.26,1,.25,1.42.08,1.59a2.12,2.12,0,0,1-1.21.22,2.61,2.61,0,0,0-1.75.87,1.81,1.81,0,0,1-1.12.61,1.82,1.82,0,0,1-1.11-.61A2.59,2.59,0,0,0,26.94,45a2.1,2.1,0,0,1-1.21-.22C25.53,44.58,25.51,44.12,25.78,43.16Z"/><path class="cls-1" d="M26,37.13l-.26-.49C24.45,34.42,23.62,33,20.16,33H17.58a3.15,3.15,0,0,1-1.65-.4,2.73,2.73,0,0,1-1-1.16l-1.59.75A4.56,4.56,0,0,0,15,34.1l.07,0a6,6,0,0,0,1.81,3.08,5.39,5.39,0,0,0,3.65,1.25h6.18Zm-5.4-.45a3.69,3.69,0,0,1-2.51-.82,3.53,3.53,0,0,1-.87-1.12h3a3.55,3.55,0,0,1,3.53,1.93Z"/><path class="cls-1" d="M59.55,29a24.87,24.87,0,0,0-.23-2.86h0c-.08-.58-.17-1.16-.29-1.74h0a27.16,27.16,0,0,0-3.63-9.25h0a18.63,18.63,0,0,0-1.16-1.68h0A17.8,17.8,0,0,0,53.07,12a10.19,10.19,0,0,0-1.24-1,10,10,0,0,0-1.21-.74A38.11,38.11,0,0,0,44.2,7.39a41.67,41.67,0,0,0-6.6-1.66,6,6,0,0,0-.77-2.52A5.65,5.65,0,0,0,36,2.09,6.14,6.14,0,0,0,34.46,1a10.13,10.13,0,0,0-4.65-1,10.14,10.14,0,0,0-4.66,1,6.34,6.34,0,0,0-1.49,1.09,5.84,5.84,0,0,0-.92,1.12A6,6,0,0,0,22,5.73a41.56,41.56,0,0,0-6.59,1.66A38.53,38.53,0,0,0,8.89,10.3q-.62.34-1.2.75a13.35,13.35,0,0,0-1.25,1c-.4.47-.78,1-1.17,1.46h0c-.4.54-.77,1.11-1.13,1.68h0A27,27,0,0,0,.51,24.43h0C.4,25,.3,25.59.23,26.17h0A27.55,27.55,0,0,0,0,29H0V79.84H0c.58,14.72,13.67,26.49,29.75,26.49S59,94.56,59.54,79.84h0V29Zm-5-12,.06-.1a25.87,25.87,0,0,1,2.84,7.51H50.9l2.75-5.64ZM51,12h0c.22.25.43.49.66.78s.45.58.65.83c.34.43.71.94,1.1,1.5L48,26.4a22.56,22.56,0,0,0-2.4-.82c.83-2,1.69-4.19,2.55-6.34L51,12ZM48.56,39.18l.15-2.32a4.11,4.11,0,0,1,2.81-.8,2.68,2.68,0,0,1,1.44.63A2.86,2.86,0,0,1,53.84,38,3.36,3.36,0,0,1,54,39.24h0v.25a4.47,4.47,0,0,1-.54,1.74L50,47.83a2.84,2.84,0,0,1-1.19,1.35,1.14,1.14,0,0,1-.32.07.62.62,0,0,1-.23-.07,1,1,0,0,1-.4-.46c.16-1.11.24-2.23.31-3.37l.17-2.68a4.17,4.17,0,0,1,1.22-2,3.33,3.33,0,0,1,2.19-.85V38A5.16,5.16,0,0,0,48.56,39.18Zm.79-27.63c-.91,2.26-1.88,4.65-2.84,7C45.63,20.8,44.77,23,43.9,25.1c-.83-.2-1.67-.39-2.53-.54h0L46.21,10C47.28,10.47,48.33,11,49.35,11.55Zm-5.73-2.5.93.33L39.61,24.26c-.85-.13-1.74-.24-2.59-.33l4.27-15.6C42.09,8.55,42.87,8.79,43.62,9.05Zm-7.47,2.54a12.69,12.69,0,0,0,1.4-4.07c.69.12,1.37.26,2.05.41L35.24,23.77c-.65-.05-1.31-.09-2-.12A24.14,24.14,0,0,1,36.15,11.59Zm-5,8.59H27.86a24.05,24.05,0,0,0-.49-3H28c.65,0,1.26,0,1.83,0s1.17,0,1.84,0h.58a22.38,22.38,0,0,0-.49,3Zm.45,1.75c0,1-.05,1.9-.05,2.83l-1.74,1.07L28,24.76c0-.93,0-1.87,0-2.83h3.58Zm0-6.53-1.75,0c-.58,0-1.21,0-1.74,0s-.77,0-1.17-.07a25.18,25.18,0,0,0-1.24-3.11l1.23.1c1,.07,1.92.11,2.91.11s1.93,0,2.91-.11c.42,0,.82-.06,1.23-.1a26.15,26.15,0,0,0-1.21,3.12l-1.2.05ZM29.78,1.75a8.42,8.42,0,0,1,3.8.75,5,5,0,0,0-1.9,1.75c-.5.64-1,1.29-1.9,1.29s-1.39-.64-1.86-1.28A5,5,0,0,0,26,2.51,8.44,8.44,0,0,1,29.78,1.75ZM24.26,4.08h0c1.16-.16,1.7.54,2.24,1.23.76,1,1.53,2,3.28,2s2.51-1,3.28-2c.54-.65,1.08-1.37,2.25-1.23h0a4.48,4.48,0,0,1,.58,2.26,9.44,9.44,0,0,1-1,4c-.74.1-1.51.18-2.29.24s-1.82.1-2.76.1-1.87,0-2.76-.1-1.54-.14-2.28-.24a9.15,9.15,0,0,1-1-4A4.34,4.34,0,0,1,24.26,4.08ZM22,7.48a12.69,12.69,0,0,0,1.4,4.07,24.14,24.14,0,0,1,2.87,12.06c-.66,0-1.31.07-2,.12L20,7.91c.68-.15,1.36-.29,2.05-.41ZM15.94,9.05c.76-.26,1.54-.5,2.33-.72l4.28,15.6c-.87.09-1.75.2-2.6.33L15,9.38Zm-2.56,1,4.84,14.54h0c-.85.16-1.7.34-2.52.55C14.85,23,14,20.81,13.08,18.6c-1-2.39-1.93-4.78-2.83-7A26.69,26.69,0,0,1,13.38,10ZM7.21,13.65,8,12.71c.19-.23.39-.45.58-.67l2.91,7.2c.86,2.15,1.75,4.29,2.55,6.34-.83.25-1.62.51-2.4.82L6.11,15.12c.35-.48.71-1,1.1-1.47Zm2.78,27a4.18,4.18,0,0,1,1.26,2.21l.16,2.53c.07,1.12.15,2.22.3,3.32a1.05,1.05,0,0,1-.42.51.46.46,0,0,1-.23.06.71.71,0,0,1-.32-.07,2.75,2.75,0,0,1-1.2-1.34L6.1,41.21A4.19,4.19,0,0,1,5.69,38a2.94,2.94,0,0,1,.88-1.33A2.73,2.73,0,0,1,8,36.06a4.11,4.11,0,0,1,2.85.83L11,39.21a5.14,5.14,0,0,0-3.22-1.16V39.8a3.36,3.36,0,0,1,2.2.83ZM5,16.9l0,.12.86,1.74,2.75,5.67H2.15A25.37,25.37,0,0,1,5,16.9ZM1.62,29.8v-.72a25.92,25.92,0,0,1,.23-2.91H9.52l.76,1.57.26,4.08H1.62Zm0,3.78h9l.08,1.21a5.31,5.31,0,0,0-2.91-.48,4.41,4.41,0,0,0-2.32,1A4.61,4.61,0,0,0,4,37.46a5.38,5.38,0,0,0-.24,1.74H1.62Zm0,7.4H4.1a6.36,6.36,0,0,0,.44,1l2.39,4.61H1.62Zm0,7.4H7.85l.13.27a4.44,4.44,0,0,0,2.07,2.14,2.64,2.64,0,0,0,1,.21,2.41,2.41,0,0,0,1-.26h0A12.33,12.33,0,0,0,12.47,52a14.71,14.71,0,0,0,.84,2H1.62Zm0,7.41H14.35a19.15,19.15,0,0,0,2.33,2.75v2.91H1.62Zm0,7.4h15v5.64h-15Zm0,7.4H16.68v5.65H1.62Zm0,9.19V78H16.69v5.65H2.11a23.8,23.8,0,0,1-.47-3.86Zm.9,5.62H16.71V91H5A24.21,24.21,0,0,1,2.54,85.4Zm7.62,12A26.62,26.62,0,0,1,6.07,92.8H16.72v5.65H11.41c-.42-.34-.84-.68-1.25-1Zm3.73,2.79h2.84v1.58a27.82,27.82,0,0,1-2.82-1.58Zm4.51-39.94,5.4,5.23-.46,9.26-4.91-5.39Zm0,11.74,4.8,5.23-.25,5-4.54-5.42ZM41,102.55a30.49,30.49,0,0,1-22.58,0l-.05-23,4.4,5.24-.44,9h14.8l-.44-9,4.4-5.26ZM33.89,63.19l.28,5.64H25.4l.28-5.64Zm-8.14-1.74V61l0-.75,4-1.29,4,1.27.06,1.21Zm8.5,9.16.28,5.64H25l.28-5.64Zm.36,7.4.28,5.65H24.66L24.94,78Zm.37,7.4.33,6.64H24.25l.33-6.64Zm6.15-8.64-4.54,5.42-.25-5L41.14,72Zm0-7.42-4.92,5.39-.46-9.24,5.4-5.23Zm-5.48-6.16-.21-4.27-5.38-1.74h-.55l-5.38,1.74-.21,4.27-5.78-5.61a15.13,15.13,0,0,1-4-6.08,24,24,0,0,1-1-6.23l-1.1-17.18a35.42,35.42,0,0,1,6.46-1.81,58.11,58.11,0,0,1,7.77-.88v.34l3.49,2.14,3.49-2.14V25.4a57.92,57.92,0,0,1,7.77.88,35.2,35.2,0,0,1,6.46,1.81l-.91,14.32v.11h0l-.18,2.71a23.47,23.47,0,0,1-1,6.23,15.12,15.12,0,0,1-4,6.12Zm7.18,38.59V100.2h2.85A28.27,28.27,0,0,1,42.83,101.78Zm6.6-4.37c-.4.36-.82.7-1.25,1H42.84V92.8H53.5A26.62,26.62,0,0,1,49.43,97.41ZM54.67,91H42.85V85.4H57A24.21,24.21,0,0,1,54.62,91ZM58,79.1v.68a24.06,24.06,0,0,1-.47,3.87H42.87V78H58Zm0-2.86H42.88V70.6H57.94Zm0-7.4H42.9V63.2H58Zm0-7.4h-15V58.53a19.06,19.06,0,0,0,2.32-2.76H58ZM58,54H46.26a16.28,16.28,0,0,0,.85-2c.14-.42.26-.84.36-1.27a2.3,2.3,0,0,0,1,.25,2.65,2.65,0,0,0,1-.21,4.48,4.48,0,0,0,2.07-2.14l.13-.27H58Zm0-7.41H52.6L55,42a8.52,8.52,0,0,0,.44-1H58Zm0-7.4H55.76a5.13,5.13,0,0,0-.25-1.74,4.71,4.71,0,0,0-1.42-2.16,4.58,4.58,0,0,0-2.33-1,5.4,5.4,0,0,0-2.91.46l.08-1.19h9Zm0-7.4H49l.26-4.07.76-1.59h7.66a25.92,25.92,0,0,1,.23,2.91v2.75Z"/><path class="cls-1" d="M34.18,51.21c-.42-.16-.86-.3-1.3-.42a5.24,5.24,0,0,0-3.1.37,5.2,5.2,0,0,0-3.09-.37c-.44.12-.88.26-1.3.42a7.46,7.46,0,0,1-3.67.58l-.17,1.75a21.66,21.66,0,0,0,4.31,1.79,24.29,24.29,0,0,0,7.89,0A21.08,21.08,0,0,0,38,53.54l-.17-1.75A7.46,7.46,0,0,1,34.18,51.21Zm-.73,2.4a23,23,0,0,1-7.28,0,10.15,10.15,0,0,1-1.42-.35c.44-.12.84-.27,1.23-.4a7.31,7.31,0,0,1,1.12-.36,3.51,3.51,0,0,1,2.27.39l.42.23.42-.23a3.51,3.51,0,0,1,2.27-.39,7.31,7.31,0,0,1,1.12.36c.4.14.81.28,1.25.41A11.42,11.42,0,0,1,33.45,53.61Z"/><path class="cls-1" d="M106.32,25.67h8.74l19.08,46.49,15-46.49h8.08V84h-8.08V30L131.73,84H130.3L107.73,29V84H106.4Z"/><path class="cls-1" d="M202,79.74,194,83.91V72.6c-1.75,6.42-5.66,12.26-13.58,12.26-8.66,0-16.41-4.09-16.41-16.17V42.34H172v26.9c0,7,2.42,14.34,8.33,14.34C191,83.58,194,71,194,62.58V42.34H202Z"/><path class="cls-1" d="M224.94,41.5c13.91,0,15.83,5.42,15.83,9.91H232.6c0-2.33.84-8.66-7.66-8.66-5.33,0-8.58,2.42-8.58,6.17,0,9.74,26.74,8.49,26.74,25.16,0,7.58-7.84,10.75-16.16,10.75-17.75,0-17.58-11.58-17.58-16.16h8.16c0,3.16-2.91,14.91,9.42,14.91a8.28,8.28,0,0,0,8.74-7.78c0-.1,0-.21,0-.31,0-12.5-26.83-11.5-26.83-24.9C208.86,43.42,216.69,41.5,224.94,41.5Z"/><path class="cls-1" d="M287.33,74.08a15.62,15.62,0,0,1-15.08,10.75c-15.65,0-22.41-9.17-22.41-21.66S257.93,41.5,270.5,41.5c5.75,0,14.42,2.75,14.42,10s-8.34,8.34-19.25,8.34h-7.74c0,.42-.08.83-.08,1.26,0,12.24,3.9,22.49,14.49,22.49,8.74,0,12.66-6.76,14-9.66Zm-10.5-23.66c0-4.75-2.58-7.67-7-7.67-8.42,0-11.33,8.25-11.91,15.83h7.74C275.25,58.58,276.83,55.28,276.83,50.42ZM269.59,26h4l-9.08,8.87h-.84Z"/><path class="cls-1" d="M330.74,74.08a15.62,15.62,0,0,1-15.08,10.75c-15.67,0-22.41-9.17-22.41-21.66s8.07-21.67,20.66-21.67c5.74,0,14.41,2.75,14.41,10s-8.33,8.34-19.24,8.34h-7.76c0,.42-.08.83-.08,1.26,0,12.24,3.92,22.49,14.5,22.49,8.75,0,12.67-6.76,14-9.66Zm-10.5-23.66c0-4.75-2.58-7.67-7-7.67-8.42,0-11.34,8.25-11.93,15.83h7.76C318.66,58.58,320.24,55.28,320.24,50.42Z"/><path class="cls-1" d="M392.88,62.83H366.63L358.8,84h-1.33l21.61-58.32h8.66L409.4,84h-8.66Zm-.41-1.25L379.8,27.51,367.09,61.58Z"/><path class="cls-1" d="M412.79,42.34l11.75-10.16V42.34h10.32v1.24H424.54v33.5c0,5.42-.18,6.42,1.57,6.42,3.84,0,5.83-6.84,6.17-9.76l1.25.18c-.59,4.82-3.17,10.91-8.09,10.91-6.41,0-9-.84-9-7.75V43.58h-3.66Z"/><path class="cls-1" d="M441.6,24.85l8.09-3.35V53.75c1.75-6.49,5.66-12.25,13.58-12.25,8.66,0,16.41,4.09,16.41,16.16V84H471.6V57.08c0-7-1.75-14.33-8.33-14.33-10.58,0-13.58,12.53-13.58,21V84H441.6Z"/><path class="cls-1" d="M526.41,63.17c0,12.49-6.74,21.66-20,21.66S486.5,75.66,486.5,63.17s6.76-21.67,19.92-21.67S526.41,50.67,526.41,63.17Zm-7.92,0c0-10.17-3.9-20.42-12-20.42s-12,10.25-12,20.42,3.91,20.41,12,20.41,12-10.25,12-20.41Z"/><path class="cls-1" d="M533.16,46.59l8.08-4.17V57.17c2.74-7.5,9.83-14.83,18.33-14.83v8c-12.75,0-18.33,4.66-18.33,13.41V84h-8.08Z"/></g></g></g></svg>