<svg id="Calque_1" data-name="Calque 1" xmlns="http://www.w3.org/2000/svg" viewBox="0 0 560 288"><defs><style>.cls-1{fill:#fff;}</style></defs><path class="cls-1" d="M180.66,96,177,94.26A6.17,6.17,0,0,1,174.64,97a7.26,7.26,0,0,1-3.76,1H165c-7.91,0-9.79,3.3-12.67,8.38l-.6,1-1.74,3h14.07a12.36,12.36,0,0,0,8.34-2.85,13.64,13.64,0,0,0,4.16-7l.18-.11A10.11,10.11,0,0,0,180.66,96Zm-10.87,8.52a8.46,8.46,0,0,1-5.74,1.88h-7.11c1.69-2.72,3.47-4.4,8.05-4.4h5.89c.29,0,.59,0,.88,0A8.41,8.41,0,0,1,169.79,104.49Z"/><path class="cls-1" d="M133.88,121.15,130,120.1c-1.05,3.83-.56,6.09.84,7.5s3.36,1.64,5.52,1.68c.32,0,.86.49,1.45,1,1.31,1.15,2.72,2.4,5.19,2.4s3.88-1.25,5.19-2.4c.59-.52,1.13-1,1.44-1,2.17,0,4.14-.28,5.53-1.68s1.89-3.67.84-7.5l-3.86,1.05c.6,2.19.58,3.23.18,3.63s-1.49.48-2.76.51c-1.8,0-2.87,1-4,2a3,3,0,0,1-5.08,0c-1.15-1-2.22-2-4-2-1.27,0-2.37-.11-2.76-.51S133.28,123.34,133.88,121.15Z"/><path class="cls-1" d="M134.32,107.38l-.6-1C130.84,101.26,129,98,121.05,98h-5.89a7.26,7.26,0,0,1-3.76-1,6.25,6.25,0,0,1-2.4-2.72L105.38,96a10.11,10.11,0,0,0,3.93,4.42l.18.11a13.64,13.64,0,0,0,4.16,7,12.34,12.34,0,0,0,8.34,2.85h14.06Zm-12.33-1a7.91,7.91,0,0,1-7.71-4.43c.29,0,.59,0,.88,0h5.89c4.58,0,6.36,1.68,8,4.4Z"/><path class="cls-1" d="M211,88.9a60.79,60.79,0,0,0-.5-6.51h0c-.17-1.35-.39-2.69-.64-4h0a62.29,62.29,0,0,0-8.34-21.09l0,0c-.82-1.31-1.67-2.59-2.59-3.83l0,0c-.83-1.14-1.69-2.26-2.59-3.34a24.88,24.88,0,0,0-5.6-4,89.58,89.58,0,0,0-14.8-6.6,94.94,94.94,0,0,0-15-3.79A13.55,13.55,0,0,0,159.1,30a12.5,12.5,0,0,0-2-2.58,14.05,14.05,0,0,0-3.4-2.48,26.19,26.19,0,0,0-21.33,0A13.92,13.92,0,0,0,129,27.4a12.5,12.5,0,0,0-2,2.58,13.55,13.55,0,0,0-1.76,5.73,94.94,94.94,0,0,0-15.05,3.79,89.58,89.58,0,0,0-14.8,6.6c-.86.49-1.78,1.06-2.74,1.74a32.5,32.5,0,0,0-2.86,2.27c-.9,1.08-1.76,2.2-2.6,3.34l0,0c-.91,1.24-1.76,2.53-2.58,3.83v0a62.06,62.06,0,0,0-8.34,21.1h0c-.25,1.32-.47,2.66-.64,4h0a63.5,63.5,0,0,0-.49,6.51h0v116h.07c1.3,33.6,31.2,60.47,67.92,60.47s66.62-26.87,67.92-60.47H211V88.9ZM199.45,61.48l.11-.23a58.79,58.79,0,0,1,6.5,17.13H191.23l6.27-12.89Zm-7.91-11.37h0c.51.58,1,1.13,1.51,1.78s1,1.29,1.47,1.91c.78,1,1.63,2.14,2.51,3.43L184.58,82.89c-1.76-.69-3.59-1.31-5.47-1.87,1.88-4.68,3.85-9.56,5.81-14.46C187.17,61,189.42,55.39,191.54,50.11Zm-5.67,62,.34-5.33a9.37,9.37,0,0,1,6.43-1.83,6.28,6.28,0,0,1,3.29,1.44,6.54,6.54,0,0,1,2,3,8,8,0,0,1,.37,2.8h0v.57a11.19,11.19,0,0,1-1.25,4l-7.86,15.12a6.3,6.3,0,0,1-2.73,3.06,1.73,1.73,0,0,1-.73.16,1.13,1.13,0,0,1-.52-.14,2.19,2.19,0,0,1-.91-1.05c.35-2.53.54-5.08.71-7.7l.39-6.1a9.5,9.5,0,0,1,2.78-4.67,7.68,7.68,0,0,1,5-1.95v-4A11.7,11.7,0,0,0,185.87,112.07ZM187.67,49c-2.08,5.16-4.27,10.62-6.46,16.08-2,5-4.05,10.07-6,14.87-1.88-.47-3.81-.89-5.76-1.26h0l11-33.15Q184.2,47.12,187.67,49Zm-13-5.71c.72.25,1.44.5,2.14.77L165.44,78c-1.94-.3-3.92-.55-5.92-.76l9.78-35.59C171.11,42.15,172.89,42.7,174.62,43.29ZM157.55,49.1a28.71,28.71,0,0,0,3.18-9.35c1.59.28,3.15.59,4.69.94l-9.94,36.2c-1.49-.11-3-.2-4.49-.27C151.07,68.54,151.76,60.17,157.55,49.1ZM146.07,68.71c-.88,0-1.9.05-3,.05s-2.17,0-3.05-.05l-1.3,0a55.93,55.93,0,0,0-1.14-7l1.3.07c1.47.07,2.87.1,4.19.1s2.71,0,4.19-.1l1.3-.07a55.93,55.93,0,0,0-1.14,7Zm1,4c-.09,2.18-.1,4.33-.1,6.47l-4,2.43-4-2.43c0-2.14,0-4.29-.1-6.47l.89,0q1.78.06,3.18.06t3.18-.06ZM147,57.77c-1.24.06-2.59.08-4,.08s-2.78,0-4-.08c-.88,0-1.74-.09-2.59-.15a60.72,60.72,0,0,0-2.79-7.14c.93.1,1.87.18,2.82.25,2.18.16,4.39.23,6.58.23s4.4-.07,6.58-.23c1-.07,1.89-.15,2.81-.25a62.37,62.37,0,0,0-2.78,7.14C148.78,57.68,147.92,57.73,147,57.77Zm-4-31.11a19.19,19.19,0,0,1,8.66,1.72c-1.9.8-3.12,2.38-4.35,4s-2.28,3-4.31,3-3.18-1.48-4.32-3-2.45-3.16-4.34-4A19.19,19.19,0,0,1,143,26.66ZM130.41,32h0c2.67-.36,3.89,1.23,5.13,2.82,1.74,2.25,3.5,4.52,7.48,4.52s5.74-2.27,7.48-4.52c1.23-1.59,2.46-3.18,5.12-2.82h0a10.14,10.14,0,0,1,1.28,5.17,21.36,21.36,0,0,1-2.37,9c-1.69.23-3.44.41-5.22.54-2,.15-4.15.22-6.3.22s-4.26-.07-6.3-.22c-1.78-.13-3.53-.31-5.22-.54a21.21,21.21,0,0,1-2.37-9A10.14,10.14,0,0,1,130.41,32Zm-5.11,7.77a28.75,28.75,0,0,0,3.19,9.35C134.28,60.17,135,68.54,135,76.62c-1.5.07-3,.16-4.48.27l-9.94-36.2C122.16,40.34,123.72,40,125.3,39.75Zm-13.88,3.54c1.73-.59,3.51-1.14,5.32-1.63l9.78,35.59q-3,.31-5.93.76L109.28,44.06C110,43.79,110.7,43.54,111.42,43.29Zm-5.86,2.24,11,33.15h0q-2.94.56-5.76,1.26c-1.93-4.8-4-9.84-6-14.87L98.37,49Q101.84,47.13,105.56,45.53ZM91.48,53.8c.54-.7,1.11-1.42,1.72-2.14.43-.53.87-1,1.3-1.53,2.13,5.26,4.37,10.85,6.62,16.43,2,4.9,3.93,9.78,5.81,14.46-1.88.56-3.71,1.18-5.47,1.87L89,57.22C89.76,56.06,90.6,54.91,91.48,53.8Zm6.34,61.58a9.58,9.58,0,0,1,2.89,5l.36,5.73c.17,2.58.35,5.09.69,7.58a2.28,2.28,0,0,1-1,1.17,1.16,1.16,0,0,1-.52.14,1.73,1.73,0,0,1-.73-.16,6.31,6.31,0,0,1-2.74-3.06L89,116.7a9.52,9.52,0,0,1-.92-7.33,6.63,6.63,0,0,1,2-3,6.28,6.28,0,0,1,3.29-1.44,9.43,9.43,0,0,1,6.5,1.88l.35,5.35a11.71,11.71,0,0,0-7.36-2.73v4A7.66,7.66,0,0,1,97.82,115.38ZM86.46,61.21l.13.27,2,4,6.27,12.89H80A57.6,57.6,0,0,1,86.46,61.21ZM78.72,90.65l0-1.67a59.94,59.94,0,0,1,.52-6.59H96.76L98.5,86l.6,9.31H78.72Zm0,8.64H99.35l.18,2.75a12.41,12.41,0,0,0-6.7-1.1,10.29,10.29,0,0,0-5.38,2.35,10.61,10.61,0,0,0-3.23,4.84,11.87,11.87,0,0,0-.56,4H78.72Zm0,16.89h5.67a15.05,15.05,0,0,0,1,2.37l5.46,10.52H78.72Zm0,16.9H92.94l.31.59a10.17,10.17,0,0,0,4.73,4.9,5.68,5.68,0,0,0,2.36.47,5.1,5.1,0,0,0,2.31-.58h0c.24,1,.52,2,.85,2.93a34.24,34.24,0,0,0,1.91,4.58H78.72Zm0,16.9H107.8a44.17,44.17,0,0,0,5.25,6.29v6.59H78.72Zm0,16.9h34.35l0,12.88H78.72Zm0,16.89H113.1l0,12.88H78.72Zm.06,21-.06-1.56v-2.51h34.42l0,12.88H79.84A54.93,54.93,0,0,1,78.78,204.74Zm2,12.83h32.34l0,12.88H86.32A56.13,56.13,0,0,1,80.83,217.57ZM98.23,245a60.77,60.77,0,0,1-9.34-10.51H113.2l0,12.89H101.07C100.11,246.58,99.15,245.79,98.23,245Zm8.52,6.39h6.48V255A63.15,63.15,0,0,1,106.75,251.36Zm10.3-91.17,12.32,12-1.05,21.12L117.09,181Zm.06,26.79L128,199l-.56,11.38L117.13,198Zm51.69,69.74a69.61,69.61,0,0,1-51.56,0l-.1-52.5,10,12-1,20.5h33.68l-1-20.54,10.05-12Zm-16.4-89.84.64,12.88H133l.64-12.88Zm-18.56-4,0-1.06.08-1.7,9.05-2.93,9,2.93.13,2.76Zm19.4,20.91.63,12.88H132.16l.64-12.88Zm.83,16.9.64,12.88H131.33l.64-12.88Zm.84,16.9.75,15.15H130.38l.75-15.15Zm14-19.65-10.35,12.37L158,198.92l10.94-12Zm0-16.93-11.22,12.29-1.05-21.08,12.31-12Zm-12.53-14.12-.48-9.73-12.3-4h-1.22l-12.3,4-.48,9.73L116.45,154a34.36,34.36,0,0,1-9.15-13.89c-1.53-4.57-1.91-9.25-2.23-14.21l-2.51-39.15a81.93,81.93,0,0,1,14.75-4.13,130.2,130.2,0,0,1,17.74-2v.77l8,4.89,8-4.89v-.77a130.2,130.2,0,0,1,17.74,2,81.93,81.93,0,0,1,14.75,4.13l-2.1,32.69-.06.26h0L181,125.9c-.32,5-.7,9.64-2.23,14.21A34.36,34.36,0,0,1,169.59,154ZM172.8,255v-3.61h6.49A64.21,64.21,0,0,1,172.8,255Zm15-10c-.92.82-1.88,1.61-2.84,2.38H172.81l0-12.89h24.31A60.77,60.77,0,0,1,187.81,245Zm11.91-14.52H172.85l0-12.88h32.34A56.13,56.13,0,0,1,199.72,230.45Zm7.6-27.27-.06,1.56a53.83,53.83,0,0,1-1.07,8.81H172.88l0-12.88h34.42Zm0-6.53H172.91l0-12.88h34.38Zm0-16.89H173l0-12.88h34.35Zm0-16.9H173v-6.59a44.17,44.17,0,0,0,5.25-6.29h29.08Zm0-16.9h-26.7a34.24,34.24,0,0,0,1.91-4.58c.33-1,.6-1.93.84-2.89a5.09,5.09,0,0,0,2.26.55,5.72,5.72,0,0,0,2.36-.47,10.16,10.16,0,0,0,4.72-4.9l.31-.59h14.3Zm0-16.89H195.11l5.46-10.52a16.05,16.05,0,0,0,1-2.37h5.74Zm0-16.9h-5a11.87,11.87,0,0,0-.57-4,10.61,10.61,0,0,0-3.23-4.84,10.26,10.26,0,0,0-5.37-2.35,12.32,12.32,0,0,0-6.63,1.07l.18-2.72h20.63Zm0-16.9H186.94l.6-9.31,1.74-3.57h17.48a58,58,0,0,1,.53,6.59l0,1.13Z"/><path class="cls-1" d="M153.07,139.54a27.22,27.22,0,0,0-3-1,11.78,11.78,0,0,0-7,.83,11.82,11.82,0,0,0-7.06-.83,27.08,27.08,0,0,0-3,1,17.44,17.44,0,0,1-8.37,1.34l-.39,4c1.94,1,7.32,3.63,9.85,4.09a56,56,0,0,0,18,0c2.52-.46,7.81-3,9.74-4.09l-.39-4A17.42,17.42,0,0,1,153.07,139.54ZM151.38,145a52.65,52.65,0,0,1-16.62,0,23.61,23.61,0,0,1-3.24-.8c1-.28,1.91-.61,2.79-.93a24.86,24.86,0,0,1,2.58-.82,8.18,8.18,0,0,1,5.16.89l1,.54,1-.54a8.16,8.16,0,0,1,5.16-.89,24,24,0,0,1,2.57.82c.9.33,1.83.66,2.85.95A24.8,24.8,0,0,1,151.38,145Z"/><path class="cls-1" d="M261.36,64.73h8.72l19,46.32L304,64.73h8.05v58.11H304V69.05l-17.35,53.79h-1.41l-22.5-54.79v54.79h-1.32Z"/><path class="cls-1" d="M356.73,118.6l-8.05,4.15V111.47c-1.74,6.39-5.64,12.2-13.53,12.2-8.63,0-16.35-4.07-16.35-16.11V81.33h8.05v26.81c0,7,2.41,14.28,8.3,14.28,10.54,0,13.53-12.53,13.53-20.92V81.33h8.05Z"/><path class="cls-1" d="M379.56,80.5c13.86,0,15.77,5.4,15.77,9.88h-8.14c0-2.32.83-8.63-7.63-8.63-5.32,0-8.55,2.41-8.55,6.14,0,9.71,26.64,8.47,26.64,25.07,0,7.55-7.8,10.71-16.1,10.71-17.68,0-17.52-11.54-17.52-16.11h8.14c0,3.16-2.91,14.86,9.38,14.86,5.39,0,8.71-3.9,8.71-8,0-12.45-26.72-11.45-26.72-24.82C363.54,82.41,371.34,80.5,379.56,80.5Z"/><path class="cls-1" d="M441.72,113a15.56,15.56,0,0,1-15,10.71c-15.61,0-22.33-9.13-22.33-21.58S412.42,80.5,425,80.5c5.72,0,14.36,2.74,14.36,10s-8.3,8.3-19.18,8.3h-7.72c0,.42-.08.83-.08,1.25,0,12.2,3.9,22.41,14.44,22.41,8.72,0,12.62-6.72,14-9.63ZM431.27,89.39c0-4.74-2.58-7.64-7-7.64-8.38,0-11.29,8.22-11.87,15.77h7.72C429.69,97.52,431.27,94.2,431.27,89.39ZM424,65.06h4l-9.13,8.8h-.83Z"/><path class="cls-1" d="M485,113a15.57,15.57,0,0,1-15,10.71c-15.6,0-22.33-9.13-22.33-21.58S455.67,80.5,468.2,80.5c5.73,0,14.36,2.74,14.36,10s-8.3,8.3-19.17,8.3h-7.72c0,.42-.09.83-.09,1.25,0,12.2,3.9,22.41,14.45,22.41,8.71,0,12.61-6.72,13.94-9.63ZM474.51,89.39c0-4.74-2.57-7.64-7-7.64-8.39,0-11.29,8.22-11.87,15.77h7.72C472.93,97.52,474.51,94.2,474.51,89.39Z"/><path class="cls-1" d="M295.89,201.35H269.75l-7.81,21.09h-1.32l21.58-58.11h8.63l21.58,58.11h-8.63Zm-.41-1.24-12.62-34-12.62,34Z"/><path class="cls-1" d="M315.73,180.93l11.7-10.12v10.12h10.3v1.25h-10.3v33.37c0,5.39-.16,6.39,1.58,6.39,3.82,0,5.81-6.81,6.14-9.71l1.25.16c-.58,4.82-3.16,10.88-8,10.88-6.4,0-9-.83-9-7.72V182.18h-3.65Z"/><path class="cls-1" d="M344.45,163.5l8.05-3.32v32.13c1.74-6.48,5.64-12.21,13.53-12.21,8.63,0,16.35,4.07,16.35,16.11v26.23h-8.05V195.63c0-7-1.74-14.28-8.3-14.28-10.54,0-13.53,12.53-13.53,20.92v20.17h-8.05Z"/><path class="cls-1" d="M428.94,201.69c0,12.45-6.72,21.58-19.92,21.58s-19.84-9.13-19.84-21.58S395.91,180.1,409,180.1,428.94,189.24,428.94,201.69Zm-7.88,0c0-10.13-3.9-20.34-11.95-20.34s-12,10.21-12,20.34,3.9,20.33,12,20.33S421.06,211.81,421.06,201.69Z"/><path class="cls-1" d="M435.66,185.17l8-4.15v14.69c2.74-7.47,9.8-14.78,18.27-14.78v8c-12.7,0-18.27,4.65-18.27,13.37v20.17h-8Z"/></svg>