<svg id="Calque_1" data-name="Calque 1" xmlns="http://www.w3.org/2000/svg" viewBox="0 0 560 288"><defs><style>.cls-1,.cls-2{fill:#fff;}.cls-2{font-size:80.63px;font-family:Magenda-Regular, Magenda;}.cls-3{letter-spacing:-0.01em;}.cls-4{letter-spacing:0em;}.cls-5{letter-spacing:-0.1em;}.cls-6{letter-spacing:-0.03em;}.cls-7{letter-spacing:-0.04em;}</style></defs><path class="cls-1" d="M183.48,131l-.59,1-1.74,3h14.06a12.37,12.37,0,0,0,8.35-2.85,13.68,13.68,0,0,0,4.16-7l.17-.11a10.11,10.11,0,0,0,3.93-4.42l-3.62-1.71a6.21,6.21,0,0,1-2.39,2.71,7.21,7.21,0,0,1-3.77,1h-5.89C188.25,122.63,186.37,125.93,183.48,131Zm12.67-4.37H202c.3,0,.59,0,.89,0a8.41,8.41,0,0,1-2,2.55,8.54,8.54,0,0,1-5.75,1.88H188.1C189.8,128.32,191.58,126.64,196.15,126.64Z"/><path class="cls-1" d="M164.89,131c-2.89-5.07-4.77-8.37-12.67-8.37h-5.89a7.21,7.21,0,0,1-3.77-1,6.21,6.21,0,0,1-2.39-2.71l-3.62,1.71a10.11,10.11,0,0,0,3.93,4.42l.17.11a13.75,13.75,0,0,0,4.16,7,12.37,12.37,0,0,0,8.35,2.85h14.06l-1.74-3Zm-11.73,0a8.54,8.54,0,0,1-5.75-1.88,8.41,8.41,0,0,1-2-2.55c.3,0,.59,0,.89,0h5.89c4.57,0,6.35,1.68,8.05,4.4Z"/><path class="cls-1" d="M304.42,16.27H245.31A24.36,24.36,0,0,0,221,40.59v3.93l-1.69-1.6a66.18,66.18,0,0,0-32.21-16.84l-.18,0a67.49,67.49,0,0,0-26.64,0,66.23,66.23,0,0,0-32.44,16.91l-1.69,1.6V40.59A24.36,24.36,0,0,0,101.8,16.27H42.7a3.23,3.23,0,0,0-3.23,3.22,20.12,20.12,0,0,0,20.11,20.1h5.47l.17.81A20.18,20.18,0,0,0,84.93,56.49h31.86l-.87,1.5A66.31,66.31,0,0,0,107,91.24a2.06,2.06,0,0,1,0,.21v.14a1.1,1.1,0,0,1,0,.18V205.52a66.53,66.53,0,0,0,133.06.27V91.8c0-.09,0-.15,0-.21v-.14a1.1,1.1,0,0,0,0-.18A66.22,66.22,0,0,0,231.21,58l-.87-1.5H262.2A20.19,20.19,0,0,0,281.9,40.4l.16-.81h5.47a20.12,20.12,0,0,0,20.11-20.1A3.22,3.22,0,0,0,304.42,16.27ZM164.12,31.89l.86-.13a61.11,61.11,0,0,1,17.19,0l.86.13L183,111l-9.45,9.43L164.12,111ZM84.93,50.05a13.72,13.72,0,0,1-12.88-9.12l-.47-1.34h26a3.22,3.22,0,0,0,0-6.44h-38A13.7,13.7,0,0,1,46.71,24l-.47-1.33H101.8a17.91,17.91,0,0,1,17.89,17.88v9.46Zm28.54,41a59.64,59.64,0,0,1,12-35.87l0,0a59.77,59.77,0,0,1,30.91-21.56l1.29-.38v59H113.47Zm44.21,7.6v10.45H113.47V98.68Zm28.55,109.73a3.22,3.22,0,0,0,3.22-3.22V186.8l1.17.2a25.35,25.35,0,0,0,4,.34h13.66v17.85a34.77,34.77,0,0,1-69.54,0V187.34h13.67a25.47,25.47,0,0,0,4.06-.34l1.16-.2v18.39a3.23,3.23,0,0,0,6.45,0V192.77l1.5.87a16.11,16.11,0,0,0,15.88,0l1.5-.87v12.42A3.23,3.23,0,0,0,186.23,208.41Zm-4.55-23.69a9.45,9.45,0,0,1-16.23,0l-.49-.82.8-.53a24.13,24.13,0,0,0,7-6.94l.83-1.26.84,1.26a24.13,24.13,0,0,0,7,6.94l.8.53ZM169.89,167a18,18,0,0,1-10,12.28l-.19.09a17.91,17.91,0,0,1-7.22,1.51h-21.1A17.91,17.91,0,0,1,113.47,163v-8.7l1.67,1.49A24.26,24.26,0,0,0,131.3,162h28.59l.25.17a23.84,23.84,0,0,0,9,3.63l1,.19Zm63.77,38.19a60.1,60.1,0,0,1-120.19.3V179.62l1.67,1.5a24.29,24.29,0,0,0,16.21,6.22h1v17.85a41.22,41.22,0,0,0,82.43,0V187.34h1A24.3,24.3,0,0,0,232,181.12l1.67-1.5Zm0-42.2a17.91,17.91,0,0,1-17.89,17.89h-21.1a17.85,17.85,0,0,1-7.15-1.48l-.22-.1A18,18,0,0,1,177.24,167l-.23-1,1-.19a23.87,23.87,0,0,0,9-3.63l.25-.17h28.59A24.28,24.28,0,0,0,232,155.79l1.67-1.49Zm0-25.32a17.91,17.91,0,0,1-17.86,17.88h-22l.87-1.5a24.39,24.39,0,0,0,3.23-12.16,3.22,3.22,0,0,0-6.44,0,17.89,17.89,0,1,1-35.77,0,3.22,3.22,0,0,0-6.44,0,24.26,24.26,0,0,0,3.23,12.16l.87,1.5h-22a17.91,17.91,0,0,1-17.86-17.88V115.57h46.11l11.71,11.71.08.06.27.22.12.11,0,0a3.24,3.24,0,0,0,4-.41l11.72-11.71h46.1Zm0-28.55H189.45V98.68h44.21Zm0-17.89v1h-44.2v-59l1.29.38A59.62,59.62,0,0,1,221.47,55l.13.16.08.1A59.61,59.61,0,0,1,233.66,91.24ZM300.4,24a13.7,13.7,0,0,1-12.87,9.11h-38a3.22,3.22,0,1,0,0,6.44h26l-.48,1.34a13.71,13.71,0,0,1-12.87,9.12H227.42V40.59a17.91,17.91,0,0,1,17.89-17.88h55.56Z"/><text class="cls-2" transform="translate(289.42 132.68) scale(1.03 1)">Mus<tspan class="cls-3" x="138.84" y="0">é</tspan><tspan class="cls-4" x="180.85" y="0">e</tspan><tspan class="cls-5"><tspan x="0" y="96.75">F</tspan><tspan class="cls-6" x="35.4" y="96.75">r</tspan><tspan class="cls-7" x="65.39" y="96.75">e</tspan><tspan class="cls-4" x="104.98" y="96.75">yja</tspan></tspan></text></svg>