<svg id="Calque_1" data-name="Calque 1" xmlns="http://www.w3.org/2000/svg" viewBox="0 0 589.42 106.07"><defs><style>.cls-1,.cls-2,.cls-3,.cls-4,.cls-5,.cls-6{fill:#161616;}.cls-2,.cls-3,.cls-4,.cls-5,.cls-6{isolation:isolate;font-size:81.05px;font-family:Magenda-Regular, Magenda;}.cls-3{letter-spacing:-0.01em;}.cls-4{letter-spacing:-0.1em;}.cls-5{letter-spacing:-0.03em;}.cls-6{letter-spacing:-0.04em;}</style></defs><path class="cls-1" d="M43.3,43.24a3,3,0,0,1-1.56.41H39.32c-3.26,0-4,1.37-5.24,3.45l-.25.42-.71,1.24h5.81a5.1,5.1,0,0,0,3.43-1.18,5.56,5.56,0,0,0,1.72-2.89l.08,0a4.2,4.2,0,0,0,1.62-1.82l-1.49-.71A2.68,2.68,0,0,1,43.3,43.24Zm-4.37,3.87H36a3.39,3.39,0,0,1,3.34-1.82h2.8A3.3,3.3,0,0,1,38.93,47.11Z" transform="translate(25.34 0.24)"/><path class="cls-1" d="M26.42,47.1c-1.19-2.09-2-3.46-5.22-3.46H18.76a3,3,0,0,1-1.55-.4,2.65,2.65,0,0,1-1-1.13l-1.49.71a4.24,4.24,0,0,0,1.62,1.81l.08,0a5.65,5.65,0,0,0,1.71,2.89,5.09,5.09,0,0,0,3.45,1.17h5.8l-.72-1.24Zm-4.83,0a3.44,3.44,0,0,1-2.37-.77,3.21,3.21,0,0,1-.83-1h2.79a3.27,3.27,0,0,1,3.3,1.81Z" transform="translate(25.34 0.24)"/><path class="cls-1" d="M84-.24H59.61a10,10,0,0,0-10,10v1.62l-.7-.66A27.27,27.27,0,0,0,35.58,3.81h-.07a27.85,27.85,0,0,0-11,0,27.36,27.36,0,0,0-13.39,7l-.7.66V9.8a10.06,10.06,0,0,0-10-10H-24a1.32,1.32,0,0,0-1.32,1.32A8.3,8.3,0,0,0-17,9.38h2.24l.07.33a8.32,8.32,0,0,0,8.15,6.64H6.57L6.22,17A27.33,27.33,0,0,0,2.55,30.73V77.9a27.45,27.45,0,1,0,54.9.95c0-.28,0-.56,0-.85V30.71A27.33,27.33,0,0,0,53.8,17l-.36-.66H66.58a8.32,8.32,0,0,0,8.13-6.64l.07-.33H77a8.31,8.31,0,0,0,8.31-8.27A1.32,1.32,0,0,0,84-.24ZM26.13,6.2l.35,0a25.58,25.58,0,0,1,7.1,0l.35,0V38.86L30,42.75l-3.9-3.9ZM-6.58,13.7a5.66,5.66,0,0,1-5.28-3.76L-12,9.38h10.7A1.32,1.32,0,0,0,0,8.06,1.32,1.32,0,0,0-1.35,6.75H-17A5.66,5.66,0,0,1-22.32,3l-.22-.59H.39A7.38,7.38,0,0,1,7.77,9.79h0v3.9ZM5.21,30.62A24.79,24.79,0,0,1,22.94,6.92l.53-.15V31.12H5.19Zm0,3.15H23.45v4.31H5.19Zm0,26.57V56.72l.66.62a10,10,0,0,0,6.68,2.56H24.36l.11.07a10.09,10.09,0,0,0,3.69,1.5l.41.08-.08.41a7.42,7.42,0,0,1-4.13,5.1l-.08,0a7.32,7.32,0,0,1-3,.62h-8.7a7.39,7.39,0,0,1-7.4-7.37Zm30,18.71h0a1.32,1.32,0,0,0,1.32-1.32V70.14l.48.08a10.36,10.36,0,0,0,1.67.14h5.64v7.36a14.35,14.35,0,1,1-28.69.62c0-.21,0-.41,0-.62V70.36h5.63A9.34,9.34,0,0,0,23,70.22l.48-.07v7.58a1.32,1.32,0,1,0,2.64,0V72.61l.62.35a6.62,6.62,0,0,0,6.56,0l.62-.35v5.12A1.32,1.32,0,0,0,35.19,79.05Zm-1.81-9.78a3.9,3.9,0,0,1-6.69,0l-.2-.35.33-.21a10,10,0,0,0,2.89-2.87l.35-.51.34.51a10,10,0,0,0,2.89,2.87l.33.21Zm-3.31,33.31A24.79,24.79,0,0,1,5.21,77.85V67.18l.66.62a10,10,0,0,0,6.72,2.56H13v7.37a17,17,0,0,0,34,0V70.36h.42a10,10,0,0,0,6.69-2.56l.66-.62,0,10.54A24.78,24.78,0,0,1,30.07,102.58ZM47.43,67.72H38.72a7.29,7.29,0,0,1-2.95-.62h-.1A7.47,7.47,0,0,1,31.52,62l-.12-.47.42-.08A10,10,0,0,0,35.54,60l.09-.08h11.8a10,10,0,0,0,6.67-2.56l.66-.62,0,3.59A7.39,7.39,0,0,1,47.43,67.72Zm0-10.48H38.36l.36-.62a10,10,0,0,0,1.32-5,1.32,1.32,0,1,0-2.64,0,7.39,7.39,0,0,1-14.77,0,1.32,1.32,0,1,0-2.63,0,9.94,9.94,0,0,0,1.32,5l.35.62h-9.1a7.4,7.4,0,0,1-7.38-7.38V40.74h19l4.84,4.83.1.09.05,0a1.32,1.32,0,0,0,1.65-.16l4.84-4.83h19l.08,9.15A7.38,7.38,0,0,1,47.44,57.24ZM54.8,38.08H36.56V33.77H54.8Zm0-7.38h0v.42H36.56V6.76l.53.15a24.65,24.65,0,0,1,12.68,8.83l0,.07v0A24.56,24.56,0,0,1,54.77,30.7ZM82.37,3a5.63,5.63,0,0,1-5.28,3.75H61.38a1.32,1.32,0,0,0,0,2.64H72.11l-.2.56a5.68,5.68,0,0,1-5.31,3.76H52.24V9.8a7.39,7.39,0,0,1,7.38-7.4H82.56Z" transform="translate(25.34 0.24)"/><text class="cls-2" transform="translate(128.42 82.39) scale(1.03 1)">Mus</text><text class="cls-3" transform="translate(272.14 82.39) scale(1.03 1)">é</text><text class="cls-2" transform="translate(315.64 82.39) scale(1.03 1)">e</text><text class="cls-4" transform="translate(380.83 82.39) scale(1.03 1)">F</text><text class="cls-5" transform="translate(417.47 82.39) scale(1.03 1)">r</text><text class="cls-6" transform="translate(448.52 82.39) scale(1.03 1)">e</text><text class="cls-2" transform="translate(489.5 82.39) scale(1.03 1)">yja</text></svg>