<svg id="Calque_1" data-name="Calque 1" xmlns="http://www.w3.org/2000/svg" viewBox="0 0 167.97 299.83"><defs><style>.cls-1{fill:none;stroke:#161616;stroke-miterlimit:10;stroke-width:4px;}.cls-2{fill:#161616;}</style></defs><path class="cls-1" d="M18.53,197.3h0Z"/><path class="cls-1" d="M149.46,204.72v.16"/><path class="cls-1" d="M149.46,197.3v.16"/><path class="cls-1" d="M84.49,220.22l37.16-17.12V182.45l-35.1,18.12,0,0h0l-.45.2-.41.13-.09,0a4.19,4.19,0,0,1-1,.13h0a4.22,4.22,0,0,1-1.06-.13h0l-.45-.14-.33-.15-.13-.06h0l0,0L55.55,186.72v20.5Z"/><path class="cls-1" d="M100.45,257.92c-1.84-6.53-8.29-11.37-16-11.37s-14.14,4.84-16,11.37"/><path class="cls-1" d="M47.29,157A4.15,4.15,0,0,1,39,157V143.77a4.15,4.15,0,0,1,8.26,0ZM68,167.69a4.15,4.15,0,0,1-8.27,0V140.46a4.15,4.15,0,0,1,8.27,0ZM88.6,178.35a4.15,4.15,0,0,1-8.26,0V136.67a4.15,4.15,0,0,1,8.26,0Zm20.66-10.66a4.15,4.15,0,0,1-8.26,0V140.46a4.15,4.15,0,0,1,8.26,0Zm16.52-6.87a4,4,0,0,1-4.13-3.79V143.77a4.15,4.15,0,0,1,8.26,0V157A4,4,0,0,1,125.78,160.82Z"/><path class="cls-1" d="M83.55,114l.09,0h.24a4,4,0,0,1,.6,0c.16,0,.3,0,.45,0l.3,0,.13,0h0l56.94,9.79V95c0-29.26-25.95-53-57.84-53S26.63,65.73,26.63,95v28.83ZM80.34,53.3a4.15,4.15,0,0,1,8.26,0v49.26a4.15,4.15,0,0,1-8.26,0Z"/><path class="cls-1" d="M18.53,207.51a55.3,55.3,0,0,0,5.87,22.58,89.58,89.58,0,0,0,6.14-25.21h-12v2.64Z"/><polygon class="cls-1" points="55.55 186.72 18.52 167.61 18.52 170.67 18.52 183.08 18.52 186.94 18.52 204.87 55.55 204.86 55.55 186.72"/><path class="cls-1" d="M149.4,207.27h.06v-2.39H138.41a90.33,90.33,0,0,0,5.7,24.08A56.41,56.41,0,0,0,149.4,207.27Z"/><polygon class="cls-1" points="121.65 204.8 149.46 204.88 149.46 186.94 149.46 183.08 149.46 170.67 149.46 168.11 121.65 182.45 121.65 204.8"/><path class="cls-1" d="M18.53,197.31v7.55"/><path class="cls-1" d="M149.46,204.72v-7.26"/><path class="cls-1" d="M68.49,257.92a14,14,0,0,0-.54,3.79c0,.66,0,1.31,0,1.94a71.94,71.94,0,0,0,33.15-.25c0-.53-.06-1.12-.06-1.69a14,14,0,0,0-.55-3.79"/><path class="cls-1" d="M115.72,257.92A63.94,63.94,0,0,0,139,237.82a94.52,94.52,0,0,1-8.9-32.94h-11.6L88.6,218.59v9a4.15,4.15,0,0,1-8.26,0v-9l-29.9-13.71H38.85a94.17,94.17,0,0,1-9.29,33.73,64,64,0,0,0,22.71,19.31,69.66,69.66,0,0,0,7.43,3.27,22,22,0,0,1,.33-3.27c2-10.74,12.18-19,24.44-19s22.47,8.21,24.44,19a21.41,21.41,0,0,1,.32,2.91,68.93,68.93,0,0,0,6.49-2.91"/><path class="cls-2" d="M134.23,88.13l-4.77-2.25a8.16,8.16,0,0,1-3.15,3.57,9.51,9.51,0,0,1-5,1.29h-7.75c-10.4,0-12.87,4.35-16.67,11l-.78,1.36-2.29,4h18.5a16.27,16.27,0,0,0,11-3.75,18,18,0,0,0,5.48-9.26l.22-.13A13.35,13.35,0,0,0,134.23,88.13Zm-14.3,11.21a11.2,11.2,0,0,1-7.56,2.47H103c2.23-3.58,4.57-5.79,10.59-5.79h7.75c.38,0,.77,0,1.16,0A11,11,0,0,1,119.93,99.34Z"/><path class="cls-2" d="M73.26,103.14l-.78-1.38c-3.8-6.67-6.27-11-16.68-11H48.06a9.55,9.55,0,0,1-5-1.29A8.14,8.14,0,0,1,40,85.88l-4.77,2.25A13.39,13.39,0,0,0,40.36,94l.23.13a18,18,0,0,0,5.47,9.26,16.27,16.27,0,0,0,11,3.75h18.5ZM57,101.81A10.43,10.43,0,0,1,46.89,96c.39,0,.78,0,1.17,0H55.8c6,0,8.37,2.21,10.6,5.79Z"/><path class="cls-1" d="M18.52,167.61,15.38,166a.33.33,0,0,1-.1-.06A4.63,4.63,0,0,1,13.64,164a4.42,4.42,0,0,1-.35-1.17s0,0,0-.08,0-.05,0-.08V128.55c0-.12,0-.22,0-.33.35-2.18,4.22-3.18,5.23-3.42h0V95A66.17,66.17,0,0,1,38.39,52.46c18.26-17.52,40.25-18.08,44.89-18.1h.07c36.45,0,66.1,27.2,66.1,60.63V125.3c1,.24,4.87,1.24,5.22,3.42a1.66,1.66,0,0,1,0,.32v34.15a.22.22,0,0,1,0,.08v.07a5.17,5.17,0,0,1-.35,1.17,4.63,4.63,0,0,1-1.64,1.91l-.1.07-3.14,1.62"/></svg>