<svg id="Calque_1" data-name="Calque 1" xmlns="http://www.w3.org/2000/svg" viewBox="0 0 167.97 299.83"><defs><style>.cls-1{fill:#161616;}</style></defs><path class="cls-1" d="M22.28,92.61v0Z"/><path class="cls-1" d="M54.37,252.28h59.09a63.23,63.23,0,0,0,7.34-4.72H47.05A62.06,62.06,0,0,0,54.37,252.28Z"/><path class="cls-1" d="M84,259.83a61.33,61.33,0,0,0,22.22-4.18H61.62A61.75,61.75,0,0,0,84,259.83Z"/><path class="cls-1" d="M137.48,61.5l-.81-1.39c-.24-.41-.5-.82-.76-1.25L84.8,40.14a2.4,2.4,0,0,0-1.63,0L32,58.91c-.23.41-.45.81-.65,1.2l-.81,1.39a60.61,60.61,0,0,0-3.09,6.13H140.57A60.61,60.61,0,0,0,137.48,61.5ZM34.75,62.91,84,44.87l49.24,18"/><path class="cls-1" d="M139.59,71H18.22v6.41a6.41,6.41,0,0,0,4.05,5.94V199A61.68,61.68,0,0,0,27,221.91V83.81h7.43V231.38H32q1.56,2.43,3.36,4.71h1.43a1.69,1.69,0,0,1,1.69,1.69v1.68h-.3c.73.81,1.48,1.61,2.26,2.38s1.64,1.58,2.49,2.34h82a60.56,60.56,0,0,0,4.76-4.72h-.18v-1.68a1.69,1.69,0,0,1,1.68-1.69h1.33c1.2-1.51,2.32-3.09,3.37-4.71h-2.33V83.81H141V221.69a61.22,61.22,0,0,0,4.73-23V83.35a6.41,6.41,0,0,0,4-5.94V71ZM38.47,77.41a1.69,1.69,0,0,1-1.69,1.68H24.63a1.69,1.69,0,0,1-.89-.26,1.66,1.66,0,0,1-.8-1.42V75.72H38.47ZM57.79,116.8v115a6.39,6.39,0,0,0-4,5.94v1.68H43.2v-1.68a6.41,6.41,0,0,0-4.05-5.94V83.35a6.43,6.43,0,0,0,4.05-5.94V75.72H53.74v1.69a6.41,6.41,0,0,0,4,5.94ZM73.92,239.46H58.39v-1.68a1.69,1.69,0,0,1,1.69-1.69H72.23a1.69,1.69,0,0,1,1.69,1.69Zm-11.4-8.08V83.81h7.42V231.38Zm11.4-154a1.69,1.69,0,0,1-1.69,1.68H60.08a1.69,1.69,0,0,1-1.69-1.68V75.72H73.92ZM93.3,116.8v115a6.41,6.41,0,0,0-4,5.94v1.68H78.72v-1.68a6.39,6.39,0,0,0-4-5.94V83.35a6.41,6.41,0,0,0,4-5.94V75.72H89.25v1.69a6.43,6.43,0,0,0,4,5.94Zm16.13,122.66H93.9v-1.68a1.69,1.69,0,0,1,1.69-1.69h12.15a1.69,1.69,0,0,1,1.69,1.69ZM98,231.38V83.81h7.43V231.38Zm11.4-154a1.68,1.68,0,0,1-1.69,1.68H95.59a1.69,1.69,0,0,1-1.69-1.68V75.72h15.53Zm19.4,154.43a6.39,6.39,0,0,0-4.05,5.94v1.68H114.23v-1.68a6.39,6.39,0,0,0-4-5.94V83.35a6.41,6.41,0,0,0,4-5.94V75.72h10.55v1.69a6.41,6.41,0,0,0,4.05,5.94ZM145,77.41a1.69,1.69,0,0,1-.8,1.43,1.77,1.77,0,0,1-.88.25H131.19a1.68,1.68,0,0,1-1.68-1.68V75.72H145Z"/></svg>