<?xml version="1.0" encoding="utf-8"?>
<!-- Generator: Adobe Illustrator 26.0.1, SVG Export Plug-In . SVG Version: 6.00 Build 0)  -->
<svg version="1.1" id="Calque_1" xmlns="http://www.w3.org/2000/svg" xmlns:xlink="http://www.w3.org/1999/xlink" x="0px" y="0px"
	 viewBox="0 0 485.5 182.8" style="enable-background:new 0 0 485.5 182.8;" xml:space="preserve">
<style type="text/css">
	.st0{font-family:'Magenda-Regular';}
	.st1{font-size:76.5184px;}
	.st2{letter-spacing:-19;}
	.st3{fill:#161616;}
</style>
<text transform="matrix(1 0 0 1 135.5552 68.4572)" class="st0 st1">Mus</text>
<text transform="matrix(1 0 0 1 267.3105 68.4572)" class="st0 st1">é</text>
<text transform="matrix(1 0 0 1 307.1816 68.4572)" class="st0 st1">e</text>
<text transform="matrix(1 0 0 1 347.4287 68.4572)" class="st0 st1">s</text>
<text transform="matrix(1 0 0 1 135.5552 160.2824)" class="st0 st1 st2">T</text>
<text transform="matrix(1 0 0 1 172.4385 160.2824)" class="st0 st1">oulonnais</text>
<path class="st3" d="M3.4,43.5L3.4,43.5z"/>
<path class="st3" d="M29.9,175.4h48.8c2.1-1.2,4.1-2.5,6.1-3.9H23.8C25.7,172.9,27.8,174.2,29.9,175.4z"/>
<path class="st3" d="M54.3,181.6c6.3,0,12.5-1.2,18.4-3.5H35.9C41.8,180.5,48,181.6,54.3,181.6z"/>
<path class="st3" d="M98.5,17.8l-0.7-1.1c-0.2-0.3-0.4-0.7-0.6-1L55,0.1c-0.4-0.2-0.9-0.2-1.3,0L11.4,15.6c-0.2,0.3-0.4,0.7-0.5,1
	l-0.7,1.1c-0.9,1.6-1.8,3.3-2.6,5.1h93.5C100.3,21.1,99.5,19.4,98.5,17.8z M13.7,18.9L54.3,4L95,18.9"/>
<path class="st3" d="M100.3,25.6H0v5.3c0,2.2,1.3,4.1,3.4,4.9v95.6c0.1,6.5,1.4,12.9,3.9,18.9V36.2h6.1v121.9h-2
	c0.9,1.4,1.8,2.7,2.8,3.9h1.2c0.8,0,1.4,0.6,1.4,1.4v1.4h-0.2c0.6,0.7,1.2,1.3,1.9,2c0.6,0.6,1.4,1.3,2.1,1.9h67.7
	c1.4-1.2,2.7-2.5,3.9-3.9h-0.2v-1.4c0-0.8,0.6-1.4,1.4-1.4h1.1c1-1.3,1.9-2.6,2.8-3.9h-1.9V36.2h6.1v113.9c2.5-6,3.8-12.5,3.9-19
	V35.8c2-0.8,3.3-2.8,3.3-4.9v-5.3H100.3z M16.7,30.9c0,0.8-0.6,1.4-1.4,1.4h-10c-0.8,0-1.4-0.6-1.4-1.4c0,0,0,0,0,0v-1.4h12.8V30.9z
	 M32.7,63.4v95.1c-2,0.8-3.3,2.8-3.3,4.9v1.4h-8.8v-1.4c0-2.2-1.3-4.1-3.3-4.9V35.8c2-0.8,3.3-2.7,3.3-4.9v-1.4h8.7v1.4
	c0,2.2,1.3,4.1,3.3,4.9L32.7,63.4z M46,164.8H33.2v-1.4c0-0.8,0.6-1.4,1.4-1.4h10c0.8,0,1.4,0.6,1.4,1.4V164.8z M36.6,158.1V36.2
	h6.1v121.9H36.6z M46,30.9c0,0.8-0.6,1.4-1.4,1.4h-10c-0.8,0-1.4-0.6-1.4-1.4v-1.4H46V30.9z M62,63.4v95.1c-2,0.8-3.3,2.8-3.3,4.9
	v1.4H50v-1.4c0-2.2-1.3-4.1-3.3-4.9V35.8c2-0.8,3.3-2.8,3.3-4.9v-1.4h8.7v1.4c0,2.2,1.3,4.1,3.3,4.9L62,63.4z M75.4,164.8H62.5v-1.4
	c0-0.8,0.6-1.4,1.4-1.4h10c0.8,0,1.4,0.6,1.4,1.4L75.4,164.8z M65.9,158.1V36.2h6.1v121.9L65.9,158.1z M75.4,30.9
	c0,0.8-0.6,1.4-1.4,1.4h-10c-0.8,0-1.4-0.6-1.4-1.4v-1.3h12.8V30.9z M91.4,158.5c-2,0.8-3.3,2.8-3.3,4.9v1.4h-8.8v-1.4
	c0-2.2-1.3-4.1-3.3-4.9V35.8c2-0.8,3.3-2.8,3.3-4.9v-1.4H88v1.4c0,2.2,1.3,4.1,3.3,4.9L91.4,158.5z M104.8,30.9
	c0,0.5-0.3,0.9-0.7,1.2c-0.2,0.1-0.5,0.2-0.7,0.2h-10c-0.8,0-1.4-0.6-1.4-1.4v-1.4h12.8V30.9z"/>
</svg>
