<svg id="Calque_1" data-name="Calque 1" xmlns="http://www.w3.org/2000/svg" viewBox="0 0 560 288"><defs><style>.cls-1{font-size:77.59px;font-family:Magenda-Regular, Magenda;}.cls-1,.cls-6{fill:#fff;}.cls-2{letter-spacing:-0.01em;}.cls-3{letter-spacing:0em;}.cls-4{letter-spacing:-0.26em;}.cls-5{letter-spacing:0em;}</style></defs><text class="cls-1" transform="translate(187.94 119.91)">Mus<tspan class="cls-2" x="133.6" y="0">é</tspan><tspan class="cls-3" x="174.03" y="0">e</tspan><tspan x="214.84" y="0">s</tspan><tspan class="cls-4"><tspan x="0" y="93.11">T</tspan><tspan class="cls-5" x="37.4" y="93.11">oulonnais</tspan></tspan></text><path class="cls-6" d="M21.31,86.7v.11s0,0,0,0Z"/><path class="cls-6" d="M53.41,246.36h59.08a62.44,62.44,0,0,0,7.35-4.71H46.08A61.65,61.65,0,0,0,53.41,246.36Z"/><path class="cls-6" d="M83,253.91a61.12,61.12,0,0,0,22.22-4.18H60.65A61.54,61.54,0,0,0,83,253.91Z"/><path class="cls-6" d="M136.51,55.59l-.81-1.4c-.24-.4-.49-.82-.76-1.24L83.84,34.23a2.4,2.4,0,0,0-1.63,0L31,53c-.23.41-.45.8-.65,1.19l-.81,1.4a58.59,58.59,0,0,0-3.09,6.13H139.6A58.59,58.59,0,0,0,136.51,55.59ZM33.79,57,83,39l49.25,18"/><path class="cls-6" d="M138.63,65.09H17.25v6.4a6.39,6.39,0,0,0,4.05,5.94v9.33s0,0,0,0V193.12A61.43,61.43,0,0,0,26,216V77.9h7.42V225.46H31c1,1.62,2.16,3.2,3.36,4.72h1.44a1.69,1.69,0,0,1,1.68,1.69v1.68h-.3c.73.81,1.48,1.6,2.26,2.38s1.65,1.58,2.5,2.34h82a62.35,62.35,0,0,0,4.76-4.72h-.18v-1.68a1.69,1.69,0,0,1,1.69-1.69h1.33q1.78-2.28,3.36-4.72h-2.33V77.9H140V215.78a61.06,61.06,0,0,0,4.72-23V77.43a6.39,6.39,0,0,0,4-5.94v-6.4ZM37.5,71.49a1.69,1.69,0,0,1-1.68,1.69H23.66A1.71,1.71,0,0,1,22,71.49V69.8H37.5Zm19.33,39.4v115a6.39,6.39,0,0,0-4,5.94v1.68H42.23v-1.68a6.39,6.39,0,0,0-4-5.94V77.43a6.39,6.39,0,0,0,4-5.94V69.8H52.78v1.69a6.39,6.39,0,0,0,4,5.94ZM73,233.55H57.43v-1.68a1.69,1.69,0,0,1,1.68-1.69H71.27A1.69,1.69,0,0,1,73,231.87Zm-11.4-8.09V77.9H69V225.46ZM73,71.49a1.69,1.69,0,0,1-1.68,1.69H59.11a1.69,1.69,0,0,1-1.68-1.69V69.8H73Zm19.39,39.4v115a6.39,6.39,0,0,0-4,5.94v1.68H77.76v-1.68a6.4,6.4,0,0,0-4.06-5.94V77.43a6.4,6.4,0,0,0,4.06-5.94V69.8H88.29v1.69a6.39,6.39,0,0,0,4,5.94Zm16.13,122.66H92.94v-1.68a1.69,1.69,0,0,1,1.69-1.69h12.15a1.69,1.69,0,0,1,1.69,1.69Zm-11.4-8.09V77.9h7.42V225.46Zm11.4-154a1.69,1.69,0,0,1-1.69,1.69H94.63a1.69,1.69,0,0,1-1.69-1.69V69.8h15.53Zm19.39,154.44a6.41,6.41,0,0,0-4,5.94v1.68H113.27v-1.68a6.39,6.39,0,0,0-4-5.94V77.43a6.39,6.39,0,0,0,4-5.94V69.8h10.54v1.69a6.41,6.41,0,0,0,4,5.94ZM144.07,71.49a1.72,1.72,0,0,1-1.69,1.69H130.23a1.69,1.69,0,0,1-1.69-1.69V69.8h15.53Z"/></svg>