<?xml version="1.0" encoding="utf-8"?>
<!-- Generator: Adobe Illustrator 26.0.1, SVG Export Plug-In . SVG Version: 6.00 Build 0)  -->
<svg version="1.1" id="Calque_1" xmlns="http://www.w3.org/2000/svg" xmlns:xlink="http://www.w3.org/1999/xlink" x="0px" y="0px"
	 viewBox="0 0 697.7 106.1" style="enable-background:new 0 0 697.7 106.1;" xml:space="preserve">
<style type="text/css">
	.st0{fill:#161616;}
	.st1{font-family:'Magenda-Regular';}
	.st2{font-size:83.6192px;}
</style>
<g>
	<path class="st0" d="M46.5,46.4c-0.7-0.1-1.5,0.2-2,0.6c-0.6,0.5-0.9,1.1-1,1.9l0,12.4l0,0.1c0.1,1.4,1.2,2.4,2.5,2.5
		c0.1,0,0.2,0,0.2,0c1.4,0,2.6-1.1,2.8-2.5l0-12.4l0-0.1C48.9,47.6,47.8,46.6,46.5,46.4z M47.2,61.3c-0.1,0.5-0.5,0.9-1,0.9
		c-0.5,0-0.8-0.4-0.9-0.9V49.1c0-0.2,0.1-0.5,0.3-0.6c0.2-0.2,0.4-0.2,0.7-0.2c0.5,0,0.8,0.4,0.9,0.9V61.3z"/>
	<path class="st0" d="M65.1,46.5c-0.7-0.1-1.5,0.1-2,0.6c-0.6,0.5-0.9,1.1-1,1.9l0,12.4l0,0.1c0.1,1.3,1.2,2.4,2.5,2.5
		c0.1,0,0.2,0,0.3,0c1.4,0,2.6-1.1,2.8-2.5l0-12.4l0-0.1C67.5,47.6,66.4,46.6,65.1,46.5z M65.8,61.3c-0.1,0.5-0.5,0.9-1.1,0.8
		c-0.4,0-0.8-0.4-0.9-0.8V49.1c0-0.2,0.2-0.5,0.3-0.6c0.2-0.2,0.5-0.2,0.7-0.2c0.4,0,0.8,0.4,0.9,0.8V61.3z"/>
	<path class="st0" d="M39.6,50.5c-0.1-1.3-1.2-2.4-2.5-2.5c-1.5-0.2-2.9,1-3,2.5l0,0l0,6.1c0.1,1.4,1.2,2.6,2.6,2.6c0,0,0.1,0,0.1,0
		c1.5,0,2.7-1.2,2.8-2.6l0,0L39.6,50.5L39.6,50.5z M36.8,57.4c-0.5,0-0.9-0.4-0.9-0.9v-5.9c0.1-0.5,0.5-0.9,1.1-0.8
		c0.4,0,0.8,0.4,0.9,0.8l0,5.9C37.8,57,37.4,57.4,36.8,57.4z"/>
	<path class="st0" d="M74.4,48c-1.5-0.2-2.9,1-3,2.5l0,6.1l0,0c0.1,1.4,1.3,2.6,2.7,2.6c0,0,0.1,0,0.1,0c1.4,0,2.6-1.1,2.7-2.6v-6
		l0-0.1C76.8,49.1,75.7,48.1,74.4,48z M74.2,57.3L74.2,57.3L74.2,57.3c-0.5,0-1-0.4-1-0.8v-5.9c0.1-0.5,0.5-0.9,1.1-0.8
		c0.4,0,0.8,0.4,0.9,0.8l0,5.9C75.1,57,74.7,57.4,74.2,57.3z"/>
	<path class="st0" d="M55.8,44.8c-1.5-0.2-2.9,1-3,2.5l0,18.9l0,0.1c0.1,1.3,1.2,2.4,2.5,2.5c0.1,0,0.2,0,0.3,0
		c0.6,0,1.3-0.2,1.8-0.6c0.6-0.5,0.9-1.1,1-1.9l0-18.9l0-0.1C58.2,45.9,57.1,44.9,55.8,44.8z M56.5,66.1c0,0.2-0.2,0.5-0.3,0.6
		c-0.2,0.2-0.5,0.2-0.7,0.2c-0.4,0-0.8-0.4-0.9-0.8V47.4c0-0.2,0.2-0.5,0.3-0.6c0.2-0.2,0.5-0.2,0.7-0.2c0.4,0,0.8,0.4,0.9,0.8V66.1
		z"/>
	<path class="st0" d="M55.5,3.7c-14.9,0-27,11.1-27,24.8v14.1L55.2,38l0.1,0c0,0,0.1,0,0.1,0l0.3,0l26.8,4.6V28.5
		C82.5,14.9,70.4,3.7,55.5,3.7z M80.7,40.5l-24.6-4.2l-0.5,0c-0.1,0-0.2,0-0.3,0H55l-24.7,4.3V28.5c0-12.7,11.3-23,25.2-23
		c13.9,0,25.2,10.3,25.2,23V40.5z"/>
	<path class="st0" d="M55.8,7.1c-0.7-0.1-1.5,0.1-2,0.6c-0.6,0.5-0.9,1.1-1,1.9l0,22.3l0,0.1c0.1,1.3,1.2,2.4,2.5,2.5
		c0.1,0,0.2,0,0.3,0c0.6,0,1.3-0.2,1.8-0.6c0.6-0.5,0.9-1.1,1-1.9l0-22.3l0-0.1C58.2,8.3,57.1,7.3,55.8,7.1z M56.5,31.9
		c0,0.2-0.2,0.5-0.3,0.6c-0.2,0.2-0.5,0.2-0.7,0.2c-0.4,0-0.8-0.4-0.9-0.8V9.8c0-0.2,0.2-0.5,0.3-0.6c0.2-0.2,0.5-0.2,0.7-0.2
		c0.4,0,0.8,0.4,0.9,0.8V31.9z"/>
	<path class="st0" d="M63.9,103.8c0-0.7-0.1-1.3-0.3-2l0,0c-1-3.4-4.3-5.8-8.1-5.8c-3.8,0-7.1,2.4-8.1,5.8l0,0
		c-0.2,0.6-0.3,1.3-0.3,2v1.6l0.7,0.2c2.4,0.6,4.9,0.8,7.4,0.8c2.7,0,5.3-0.3,7.9-1l0.7-0.2v-0.7c0-0.1,0-0.3,0-0.4
		C63.9,104,63.9,103.9,63.9,103.8z M62.1,103.8C62.1,103.8,62.1,103.8,62.1,103.8c-4.3,1-8.8,1-13.1,0.1v-0.1c0-0.5,0.1-1,0.2-1.5
		l0,0c0.8-2.6,3.4-4.5,6.3-4.5c3,0,5.6,1.8,6.4,4.5l1.6-0.4l-1.6,0.5C62,102.8,62.1,103.3,62.1,103.8z"/>
	<path class="st0" d="M68.6,26.6c-4.7,0-5.8,2-7.5,5l-0.4,0.6l-1,1.8h8.3c1.8,0.1,3.6-0.5,5-1.7c1.2-1.1,2.1-2.6,2.5-4.2l0.1-0.1
		c1-0.6,1.8-1.5,2.4-2.6l-2.2-1c-0.3,0.7-0.8,1.2-1.4,1.6c-0.7,0.4-1.5,0.6-2.3,0.6H68.6z M72.7,29c-0.3,0.6-0.7,1.1-1.2,1.5
		c-1,0.8-2.2,1.2-3.4,1.1h-4.2c1-1.6,2.1-2.6,4.8-2.6h3.5C72.3,29,72.5,29,72.7,29z"/>
	<path class="st0" d="M50.1,31.6c-1.7-3-2.8-5-7.5-5h-3.5c-0.8,0-1.6-0.2-2.3-0.6c-0.6-0.4-1.1-1-1.4-1.6l-2.2,1
		c0.5,1.1,1.3,2,2.3,2.6l0.1,0.1c0.4,1.6,1.2,3.1,2.5,4.2c1.4,1.2,3.2,1.8,5,1.7h8.3l-1-1.8L50.1,31.6z M43.1,31.6
		c-1.9,0.1-3.7-0.9-4.6-2.6c0.2,0,0.4,0,0.5,0h3.5c2.7,0,3.8,1,4.8,2.6L43.1,31.6z"/>
	<path class="st0" d="M88.1,59.2V43.9c0-0.1,0-0.2,0-0.3l0-0.1c-0.2-1.1-1.3-1.7-2.3-2.1v-13C85.7,13,72,0.3,55,0.3
		c-3.7,0-13,0.9-20.9,8.4c-5.4,5.2-8.7,12.3-9.2,19.8l0,12.8c-1.1,0.4-2.2,1-2.3,2.1l0,15.7l0,0.2c0,0.3,0.1,0.5,0.2,0.8
		c0.2,0.5,0.6,0.9,1,1.2c0.1,0,0.1,0.1,0.2,0.1l0.9,0.5v15.3l-0.1-0.1l0.1,2.2c0.2,3.7,1.1,7.3,2.7,10.6l0.9,1.8l0.7-1.8
		c1.4-3.5,2.3-7.1,2.7-10.8l2,0c-0.5,4.9-1.8,9.5-4,13.9l-0.2,0.5l0.3,0.4c2.8,3.8,6.4,6.9,10.6,9c1.1,0.6,2.3,1.1,3.4,1.5l1.2,0.4
		l0-1.3c0-0.4,0.1-0.9,0.1-1.3c0.8-4.5,5.1-7.8,10.1-7.8c5,0,9.3,3.3,10.1,7.8c0.1,0.4,0.1,0.8,0.1,1.2l0.1,1.3l1.2-0.5
		c1-0.4,2-0.8,3-1.3c4.3-2.2,8-5.4,10.8-9.4l0.3-0.4l-0.2-0.5c-2.1-4.3-3.3-8.9-3.8-13.6l2,0c0.4,3.5,1.2,7,2.5,10.3l0.8,2l0.9-1.9
		c1.4-2.9,2.2-6,2.4-9.3h0.1V79v-0.9V78v-0.8v-2.4v-0.1V62.1l0.9-0.5l0.1-0.1c0.5-0.3,0.8-0.7,1.1-1.3c0.1-0.2,0.2-0.5,0.2-0.7
		L88.1,59.2L88.1,59.2z M83.9,79.2c-0.1,2.5-0.6,5-1.4,7.3c-0.8-2.4-1.3-4.9-1.6-7.4h3.1L83.9,79.2z M43.4,71.4L54.3,77l0.2,0.1
		l0.4,0.1c0.2,0.1,0.4,0.1,0.7,0.1c0.2,0,0.4,0,0.5-0.1h0.1l0.6-0.2l14.6-7.5v7.3L55.5,84l-12.2-5.5V71.4z M54.6,85.6l1,0.4l0.9-0.4
		v2.7c0,0.2-0.2,0.5-0.3,0.6c-0.2,0.2-0.5,0.2-0.7,0.2c-0.4,0-0.8-0.4-0.9-0.8V85.6z M41.6,77.2l-14.9,0v-2.5h0V62.8l14.9,7.7V77.2z
		 M28.3,87.1c-1-2.5-1.5-5.1-1.7-7.7V79h3.5C29.9,81.8,29.2,84.5,28.3,87.1z M69.2,101.2L69.2,101.2c-0.6,0.3-1.2,0.6-1.7,0.8
		c0-0.1,0-0.1,0-0.2c-1-5.4-6-9.3-11.9-9.3c-5.9,0-10.9,3.9-11.9,9.3c0,0.1,0,0.2-0.1,0.3c-0.7-0.3-1.4-0.6-2.1-1
		c-3.7-1.9-7.1-4.7-9.6-8c2.1-4.5,3.5-9.3,4-14.2H40l1.6,0.7v0l0.4,0.2l10.8,5v3.5l0,0.1c0.1,1.3,1.2,2.4,2.5,2.5
		c0.7,0.1,1.5-0.1,2-0.6c0.6-0.5,0.9-1.1,1-1.9l0-3.6L71.1,79h4.2c0.5,4.8,1.8,9.5,3.8,13.9C76.5,96.4,73.1,99.3,69.2,101.2z
		 M83.9,74.8v2.4l-10.7,0v-8.6L83.9,63V74.8L83.9,74.8z M86.3,59.3c0,0.1,0,0.2-0.1,0.2c-0.1,0.2-0.2,0.4-0.4,0.5l-1.4,0.7l0,0
		l-11.2,5.8v0l-1.4,0.7l-0.4,0.2v0l-15.3,7.9l-0.1,0.1l-0.1,0c-0.1,0-0.2,0-0.2,0c-0.1,0-0.2,0-0.2,0l-12.9-6.5l-17.6-9.1v0l-0.1,0
		c-0.2-0.1-0.3-0.3-0.4-0.5c0-0.1-0.1-0.2-0.1-0.2V43.6c0.1-0.1,0.6-0.5,1.7-0.8l0.7-0.2V28.6c0.5-7.1,3.6-13.7,8.7-18.6
		C42.8,2.9,51.6,2.1,55,2.1c15.9,0,28.9,11.9,28.9,26.5v14.4l0.7,0.2c1.1,0.3,1.6,0.6,1.7,0.8V59.3z"/>
</g>
<text transform="matrix(1 0 0 1 128.6199 79.9028)" class="st1 st2">Musée Édouard</text>
</svg>
