<svg id="Calque_1" data-name="Calque 1" xmlns="http://www.w3.org/2000/svg" viewBox="0 0 560 288"><defs><style>.cls-1{fill:none;stroke:#fff;stroke-miterlimit:10;stroke-width:4px;}.cls-2,.cls-3{fill:#fff;}.cls-3{font-size:83.62px;font-family:Magenda-Regular, Magenda;}.cls-4{letter-spacing:-0.01em;}.cls-5{letter-spacing:-0.06em;}.cls-6{letter-spacing:0em;}.cls-7{letter-spacing:-0.02em;}</style></defs><path class="cls-1" d="M33.69,193.21h0Z"/><path class="cls-1" d="M169.67,200.92v.16"/><path class="cls-1" d="M169.67,193.21v.17"/><path class="cls-1" d="M102.2,217l38.59-17.78V177.8l-36.45,18.8-.06,0h0a4,4,0,0,1-.47.21l-.42.13-.09,0a4.53,4.53,0,0,1-1.1.13h0a4.51,4.51,0,0,1-1.09-.13l-.06,0-.46-.14-.35-.16a.75.75,0,0,1-.13-.06h0l0,0L72.15,182.22v21.3Z"/><path class="cls-1" d="M118.78,256.17c-1.92-6.78-8.62-11.81-16.6-11.81s-14.69,5-16.6,11.81"/><path class="cls-1" d="M63.57,151.39a4.31,4.31,0,0,1-8.59,0V137.62a4.31,4.31,0,0,1,8.59,0ZM85,162.46a4.31,4.31,0,0,1-8.58,0V134.18a4.31,4.31,0,0,1,8.58,0Zm21.45,11.07a4.31,4.31,0,0,1-8.58,0V130.24a4.31,4.31,0,0,1,8.58,0Zm21.45-11.07a4.31,4.31,0,0,1-8.58,0V134.18a4.31,4.31,0,0,1,8.58,0Zm17.16-7.13a4.12,4.12,0,0,1-4.29-3.94V137.62a4.31,4.31,0,0,1,8.58,0v13.77A4.12,4.12,0,0,1,145.08,155.33Z"/><path class="cls-1" d="M101.22,106.73h.09l.08,0h.17a4.46,4.46,0,0,1,.63,0,3.73,3.73,0,0,1,.47,0c.1,0,.2,0,.31,0l.13,0h0l59.13,10.17V87c0-30.38-26.94-55.09-60.06-55.09S42.11,56.58,42.11,87V116.9ZM97.89,43.67a4.31,4.31,0,0,1,8.58,0V94.83a4.31,4.31,0,0,1-8.58,0Z"/><path class="cls-1" d="M33.69,203.81a57.62,57.62,0,0,0,6.1,23.46,93,93,0,0,0,6.38-26.19H33.69v2.73Z"/><polygon class="cls-1" points="72.15 182.22 33.69 162.38 33.69 165.56 33.69 178.44 33.69 182.46 33.69 201.08 72.15 201.06 72.15 182.22"/><path class="cls-1" d="M169.6,203.57h.07v-2.49H158.19a94.32,94.32,0,0,0,5.92,25A58.34,58.34,0,0,0,169.6,203.57Z"/><polygon class="cls-1" points="140.79 201 169.67 201.08 169.67 182.46 169.67 178.44 169.67 165.56 169.67 162.9 140.79 177.79 140.79 201"/><path class="cls-1" d="M33.69,193.22v7.84"/><path class="cls-1" d="M169.67,200.92v-7.54"/><path class="cls-1" d="M85.58,256.17A14.63,14.63,0,0,0,85,260.1c0,.69,0,1.36,0,2a74.69,74.69,0,0,0,34.43-.26c0-.55-.07-1.16-.07-1.76a14.63,14.63,0,0,0-.56-3.93"/><path class="cls-1" d="M134.63,256.17A66.52,66.52,0,0,0,158.8,235.3a98.12,98.12,0,0,1-9.24-34.22H137.51l-31,14.24v9.37a4.31,4.31,0,0,1-8.58,0v-9.37l-31-14.24h-12a97.73,97.73,0,0,1-9.65,35,66.63,66.63,0,0,0,23.58,20.06,71,71,0,0,0,7.72,3.39,22.25,22.25,0,0,1,.35-3.39c2-11.16,12.64-19.68,25.38-19.68s23.33,8.52,25.38,19.68a23.25,23.25,0,0,1,.34,3,71.47,71.47,0,0,0,6.73-3"/><path class="cls-2" d="M153.85,79.84,148.9,77.5a8.44,8.44,0,0,1-3.27,3.71,9.9,9.9,0,0,1-5.14,1.34h-8.05c-10.8,0-13.37,4.51-17.31,11.45-.22.38-.43.76-.81,1.41l-2.38,4.12h19.22a16.88,16.88,0,0,0,11.4-3.9A18.68,18.68,0,0,0,148.24,86l.24-.14A13.81,13.81,0,0,0,153.85,79.84ZM139,91.48A11.59,11.59,0,0,1,131.16,94h-9.72c2.32-3.71,4.75-6,11-6h8.05c.4,0,.8,0,1.21-.05A11.4,11.4,0,0,1,139,91.48Z"/><path class="cls-2" d="M90.53,95.42,89.72,94c-3.94-6.94-6.51-11.45-17.31-11.45h-8a9.9,9.9,0,0,1-5.14-1.34A8.44,8.44,0,0,1,56,77.5l-5,2.34a13.87,13.87,0,0,0,5.37,6l.24.14a18.68,18.68,0,0,0,5.68,9.61,16.88,16.88,0,0,0,11.4,3.9H92.9ZM73.69,94A10.81,10.81,0,0,1,63.15,88c.41,0,.81.05,1.21.05h8c6.25,0,8.68,2.29,11,6Z"/><path class="cls-1" d="M33.69,162.38l-3.26-1.68-.11-.07a4.73,4.73,0,0,1-2.07-3.2v-.08a.19.19,0,0,1,0-.08V121.81a1.87,1.87,0,0,1,0-.34c.36-2.26,4.38-3.3,5.42-3.55h0V87c.35-5.06,2.4-26.69,20.6-44.17C73.28,24.6,96.12,24,100.94,24H101c37.85,0,68.65,28.24,68.65,63v31.48c1.05.25,5.06,1.28,5.42,3.55a1.84,1.84,0,0,1,0,.33v35.47s0,.05,0,.08a.19.19,0,0,0,0,.08,4.78,4.78,0,0,1-2.07,3.2l-.1.07-3.26,1.68"/><text class="cls-3" transform="translate(232.74 123.09)">Mus<tspan class="cls-4" x="143.99" y="0">é</tspan><tspan x="187.55" y="0">e</tspan><tspan class="cls-5" x="0" y="100.34">É</tspan><tspan class="cls-6" x="40.05" y="100.34">dou</tspan><tspan class="cls-7" x="179.19" y="100.34">ar</tspan><tspan x="251.77" y="100.34">d</tspan></text></svg>